<svg
xmlns="http://www.w3.org/2000/svg"
xmlns:xlink="http://www.w3.org/1999/xlink"
width="22px" height="27px">
<path fill-rule="evenodd"  fill="rgb(255, 255, 255)"
      d="M1.712,25.854 L3.332,25.854 L19.712,0.654 L18.092,0.654 L1.712,25.854 ZM6.212,1.068 C6.500,1.224 6.752,1.500 6.968,1.896 C7.184,2.292 7.352,2.826 7.472,3.498 C7.592,4.170 7.652,5.022 7.652,6.054 C7.652,7.086 7.592,7.938 7.472,8.610 C7.352,9.282 7.184,9.816 6.968,10.212 C6.752,10.608 6.500,10.884 6.212,11.040 C5.924,11.196 5.624,11.274 5.312,11.274 C5.000,11.274 4.700,11.196 4.412,11.040 C4.124,10.884 3.872,10.608 3.656,10.212 C3.440,9.816 3.272,9.282 3.152,8.610 C3.032,7.938 2.972,7.086 2.972,6.054 C2.972,5.022 3.032,4.170 3.152,3.498 C3.272,2.826 3.440,2.292 3.656,1.896 C3.872,1.500 4.124,1.224 4.412,1.068 C4.700,0.912 5.000,0.834 5.312,0.834 C5.624,0.834 5.924,0.912 6.212,1.068 ZM3.386,0.708 C2.774,0.984 2.240,1.374 1.784,1.878 C1.328,2.382 0.962,2.988 0.686,3.696 C0.410,4.404 0.272,5.190 0.272,6.054 C0.272,6.918 0.410,7.704 0.686,8.412 C0.962,9.120 1.328,9.726 1.784,10.230 C2.240,10.734 2.774,11.124 3.386,11.400 C3.998,11.676 4.640,11.814 5.312,11.814 C5.984,11.814 6.626,11.676 7.238,11.400 C7.850,11.124 8.384,10.734 8.840,10.230 C9.296,9.726 9.662,9.120 9.938,8.412 C10.214,7.704 10.352,6.918 10.352,6.054 C10.352,5.190 10.214,4.404 9.938,3.696 C9.662,2.988 9.296,2.382 8.840,1.878 C8.384,1.374 7.850,0.984 7.238,0.708 C6.626,0.432 5.984,0.294 5.312,0.294 C4.640,0.294 3.998,0.432 3.386,0.708 ZM17.012,15.468 C17.300,15.624 17.552,15.900 17.768,16.296 C17.984,16.692 18.152,17.226 18.272,17.898 C18.392,18.570 18.452,19.422 18.452,20.454 C18.452,21.486 18.392,22.338 18.272,23.010 C18.152,23.682 17.984,24.216 17.768,24.612 C17.552,25.008 17.300,25.284 17.012,25.440 C16.724,25.596 16.424,25.674 16.112,25.674 C15.800,25.674 15.500,25.596 15.212,25.440 C14.924,25.284 14.672,25.008 14.456,24.612 C14.240,24.216 14.072,23.682 13.952,23.010 C13.832,22.338 13.772,21.486 13.772,20.454 C13.772,19.422 13.832,18.570 13.952,17.898 C14.072,17.226 14.240,16.692 14.456,16.296 C14.672,15.900 14.924,15.624 15.212,15.468 C15.500,15.312 15.800,15.234 16.112,15.234 C16.424,15.234 16.724,15.312 17.012,15.468 ZM14.186,15.108 C13.574,15.384 13.040,15.774 12.584,16.278 C12.128,16.782 11.762,17.388 11.486,18.096 C11.210,18.804 11.072,19.590 11.072,20.454 C11.072,21.318 11.210,22.104 11.486,22.812 C11.762,23.520 12.128,24.126 12.584,24.630 C13.040,25.134 13.574,25.524 14.186,25.800 C14.798,26.075 15.440,26.214 16.112,26.214 C16.784,26.214 17.426,26.075 18.038,25.800 C18.650,25.524 19.184,25.134 19.640,24.630 C20.096,24.126 20.462,23.520 20.738,22.812 C21.014,22.104 21.152,21.318 21.152,20.454 C21.152,19.590 21.014,18.804 20.738,18.096 C20.462,17.388 20.096,16.782 19.640,16.278 C19.184,15.774 18.650,15.384 18.038,15.108 C17.426,14.832 16.784,14.694 16.112,14.694 C15.440,14.694 14.798,14.832 14.186,15.108 Z"/>
</svg>
