<svg
     xmlns="http://www.w3.org/2000/svg"
     xmlns:xlink="http://www.w3.org/1999/xlink"
     width="15px" height="16px">
  <path fill-rule="evenodd"  fill="rgb(181, 99, 73)"
        d="M14.994,14.286 L10.611,9.803 C11.174,8.894 11.505,7.819 11.505,6.665 C11.505,3.418 8.923,0.776 5.748,0.776 C2.574,0.776 -0.008,3.418 -0.008,6.665 C-0.008,9.913 2.574,12.555 5.748,12.555 C7.074,12.555 8.292,12.090 9.266,11.317 L13.581,15.732 L14.994,14.286 ZM5.748,10.511 C3.676,10.511 1.990,8.786 1.990,6.665 C1.990,4.545 3.676,2.820 5.748,2.820 C7.821,2.820 9.507,4.545 9.507,6.665 C9.507,8.786 7.821,10.511 5.748,10.511 Z"/>
</svg>
