<svg xmlns="http://www.w3.org/2000/svg" viewBox="0 0 873 749" width="873" height="749"><g id="Layer_2" data-name="Layer 2"><g id="Layer_1-2" data-name="Layer 1"><path fill="white" d="M783.73,1A179.74,179.74,0,0,1,846,11.64c21,7.73,40.71,19.92,58.57,36.25,21.34,19.2,40,40.77,58,61.62,25.2,29.16,51.26,59.31,84.32,82.16,12.25,9.3,24.44,19.27,36.25,29.63,35.54,31.36,58.85,73.27,71.26,128.12,11,48.41,12.24,100.14,13.48,150.15.23,9.34.47,19,.77,28.33V528c1.47,16.16,5.38,33.31,9.17,49.9q1,4.25,1.91,8.41c4.63,18.86,8.82,34.1,13.19,48,17.72,56.33,41.21,96.42,73.92,126.16,15.21,13.88,32.87,24.58,50,34.93,28.25,17.11,54.94,33.27,71.74,62.68,6.8,12.47,7.93,25.23,3.36,37.93-8.1,22.51-31.62,38.79-50.9,46.5-32.11,12-66.42,21.31-99.6,30.33-85.67,23.29-174.26,47.38-233.73,119.43-13.56,13.56-27.93,26.62-42.71,38.83a606.1,606.1,0,0,1-83.24,57.73c-14.68,8.45-29.9,16.37-45.23,23.54h-.06c-19.88,10.85-42,17.74-67.54,21.09A338,338,0,0,1,733.8,1236h-12c-28.57,0-61.64,0-92.45-.19-10.19.41-22.86.92-34.31.92-5.68,0-10.69-.12-15.31-.36-32.1-7.37-64.51-23.94-99.07-50.65-30.64-23.68-59.24-52.25-86.89-79.88-15.18-15.17-29.53-29.5-44.06-42.95-13.74-13.74-32.09-15.5-46.55-15.5-7.75,0-15.81.59-23.61,1.15-7.63.55-15.51,1.13-22.94,1.13-3.67,0-7-.14-10.06-.41h-.06a287.21,287.21,0,0,1-40.14-3.56c-21.53-3.66-38.47-10.18-51.81-19.93-15.77-11.53-26.16-27.23-31.75-48v-.07c-14.53-41.6-40.94-76.61-66.47-110.46C40.25,846,23.7,824,9.89,800.37,1.42,785.46-1,772.3,2.57,760.15c7.25-24.88,39-41.7,69.74-58,21.69-11.48,44.11-23.35,57.64-38a28.78,28.78,0,0,0,7-25,32.83,32.83,0,0,0-17.62-22.88C98.75,606,81.84,592.38,69.09,575.9a137.36,137.36,0,0,1-24.83-53c-7.85-33.33-5.53-72.78,6.72-114.09A337.56,337.56,0,0,1,103.3,304.45a229.34,229.34,0,0,1,28.57-32.15c29.33-27.15,61.93-41.5,94.28-41.5a114.27,114.27,0,0,1,24.73,2.74c9.41,2.23,19.8,5.61,33.7,11,11.5,4.26,24,10.08,37.17,16.23,30.14,14.06,61.31,28.6,88.51,28.6,19,0,33.47-7.15,44.25-21.84,7.48-10.06,14.53-22.55,21.55-38.19,6.15-13.43,11.62-27.86,16.92-41.83,17.83-47,36.26-95.64,84.79-120.56,33.61-16.52,66.59-32.36,100.44-44.6C717.89,8,752.41,1,783.73,1m0-1C713.52,0,640.41,35,577.32,66,513.79,98.65,501.78,170.76,475.15,228.9c-6.23,13.88-13.15,26.85-21.45,38-11.44,15.6-26.51,21.44-43.44,21.44-39,0-87.87-30.9-125.33-44.77a267.64,267.64,0,0,0-33.82-11,114.78,114.78,0,0,0-25-2.77c-36.29,0-68.79,17.54-95,41.77a230.77,230.77,0,0,0-28.69,32.29C34.78,394-4.71,555.35,118.91,617.15c17.17,8.58,24,30.9,10.3,46.36C88,708.15-33.9,725.32,9,800.86,45.08,862.67,98.3,910.74,121.8,978c6,22.25,17.4,37.75,32.13,48.52s32.77,16.8,52.23,20.11a289.55,289.55,0,0,0,40.28,3.57c3.3.3,6.69.42,10.15.42,15,0,31.2-2.28,46.55-2.28,17.29,0,33.53,2.9,45.84,15.21,68.68,63.53,139.07,152.8,230.59,173.77,4.93.26,10.11.37,15.45.37,11.06,0,22.79-.46,34.35-.92,29.9.17,61.56.19,92.41.19h12A339.48,339.48,0,0,0,769,1234.4c23.26-3,46-9.28,67.89-21.2q23.2-10.85,45.3-23.58a605.4,605.4,0,0,0,83.38-57.83q22.33-18.44,42.82-38.92c82.28-99.71,217.91-106.58,332.95-149.5,34.34-13.74,68.68-48.07,48.07-85.85-27.47-48.07-82.41-61.81-121.9-97.86-37.77-34.34-58.8-78.55-73.64-125.72-4.95-15.72-9.21-31.78-13.17-47.9-4.18-18.67-9.33-39.28-11.05-58.16-3.43-106.45,1.72-230.06-85.85-307.33q-17.6-15.45-36.31-29.68c-56.4-39-90.74-97.37-142.25-143.73C867.69,12.82,826.25,0,783.73,0Z"/><path d="M774.7,31.11a174,174,0,0,1,59.87,10.17c20.21,7.38,39.18,19,56.38,34.57,20.5,18.54,38.58,39.09,56.08,59,24.11,27.4,49,55.73,80,78.09,12.61,9.12,24.48,19.36,34.61,28.24,32.15,28.31,53.57,65.84,65.47,114.73,10.54,43.31,12.57,90,14.54,135.19.61,14,1.24,28.55,2.12,42.44,1,15.54,5,32,8.79,47.85q1,3.95,1.87,7.8c3.57,15.11,7.83,30.51,12.65,45.77,17,53.79,39.43,92.06,70.6,120.46,14.36,13.29,31.11,23.51,47.31,33.4,26.84,16.38,52.2,31.85,67.77,60.14,6.53,11.86,7.58,24.06,3.13,36.26-3.4,9.34-10.11,18.54-19.38,26.6a101.36,101.36,0,0,1-29.68,17.77c-31.2,12.06-64.27,21.57-96.24,30.77-79.88,23-162.47,46.76-222,112.08-12.37,13.58-26.82,25.48-40.79,37a579.31,579.31,0,0,1-79.48,55c-11.09,6.37-22.76,12.21-34.05,17.85q-4.58,2.29-9.15,4.59A197.76,197.76,0,0,1,760.59,1207a288.85,288.85,0,0,1-33.49,2.43c-5.11.07-10.5.1-16.45.1-10.57,0-21.39-.11-31.85-.21s-21.11-.21-31.5-.21c-7.3,0-13.8.05-19.88.16-4.85.08-9.79.23-14.57.38-7.34.22-14.28.43-21.06.43-4.39,0-8.23-.09-11.75-.27-32.15-7.31-64.67-23.94-99.4-50.86-30.73-23.81-59.22-52.38-86.77-80-12.07-12.1-23.47-23.53-35-34.51-14-13.31-32.35-15-46.82-15-7.53,0-15.32.53-22.85,1-7.32.5-14.89,1-22,1-2.63,0-5-.07-7.34-.21l-4.73-.28c-11.26-.66-22.89-1.33-33.79-3.2-20.64-3.53-36.89-9.78-49.7-19.11-14-10.29-23.84-25.27-30.14-45.81-12.34-40.23-37.93-73.51-62.67-105.69-15.49-20.15-31.5-41-44.46-63.6-8.07-14.09-10.38-26.54-7-38,6.83-23.6,37.06-39.62,66.3-55.12,20.94-11.1,42.59-22.57,55.49-36.8A27.22,27.22,0,0,0,156,639.88a31.4,31.4,0,0,0-16.83-22.06c-37.72-19-61.59-48.68-71-88.36-7.5-31.76-5.26-69.45,6.5-109a326.81,326.81,0,0,1,50-99.92A225.49,225.49,0,0,1,152,289.89c19.65-18.13,51.22-39.75,90-39.75a107.37,107.37,0,0,1,23.78,2.7c10.5,2.39,21.67,6.45,32.22,10.41,10.71,4,22.31,9.42,34.59,15.13,27.68,12.88,59,27.49,85.32,27.49,18.29,0,32.25-6.82,42.68-20.86,7.17-9.66,13.75-21.22,20.7-36.4,5.81-12.69,11-26.35,16-39.56C514.44,164,532.15,117.33,578.9,93.92c63.47-31.78,130.87-62.82,195.8-62.82m0-1c-66.92,0-136.41,33-196.25,62.92-61,30.55-72.66,99.67-98.07,155.17-6,13.2-12.67,25.56-20.59,36.22-11.06,14.89-25.58,20.46-41.88,20.46-37.29,0-83.87-29.17-119.56-42.56-11.12-4.17-21.93-8.07-32.34-10.45a107.89,107.89,0,0,0-24-2.72c-34.61,0-65.68,16.93-90.69,40A226.38,226.38,0,0,0,123.87,320C59.51,406.17,21.22,559.69,138.7,618.72c16.31,8.2,23,29.61,9.69,44.22-39,43-156,59.29-114.87,131.13,33.89,59.17,87.11,104.13,107,169.09,6.45,21,16.51,36,30.51,46.32,14.15,10.3,31.46,16.1,50.13,19.29,12.45,2.13,25.53,2.7,38.63,3.49,2.43.15,4.9.21,7.4.21,14.41,0,30-2.06,44.85-2.06,17.25,0,33.59,2.77,46.13,14.74C423.1,1107.06,492,1190.88,579.9,1210.8c3.82.2,7.8.28,11.89.28,11.38,0,23.6-.6,35.65-.81q9.81-.17,19.86-.16c20.84,0,42.26.42,63.35.42q8.27,0,16.47-.1a288.68,288.68,0,0,0,33.6-2.44,199.56,199.56,0,0,0,64.81-20.21c14.55-7.35,29.19-14.4,43.25-22.47a578.67,578.67,0,0,0,79.62-55.11c14.22-11.71,28.5-23.49,40.9-37.09,83.06-91.16,208.53-100.36,317.84-142.6,33.08-12.78,66.2-46.15,46.44-82.05-25.42-46.19-77.92-59.22-115.27-93.79-36-32.8-56.1-75-70.32-120-4.74-15-9-30.28-12.63-45.7-4.2-17.77-9.49-37.43-10.64-55.48-6.43-101.37,1.21-219.37-82.47-293-11.21-9.82-22.59-19.55-34.69-28.3-53-38.36-86.9-92.62-136-137-36.17-32.72-76.06-45-116.91-45Z"/><path d="M766.53,61.28a166.16,166.16,0,0,1,57,9.66,164.17,164.17,0,0,1,53.73,32.86c19.55,17.63,36.8,37.17,53.49,56.07,23,26,46.79,53,76.25,74.25,12,8.69,23.34,18.42,33,26.86,30.65,26.93,51.11,62.63,62.54,109.13,10.12,41.2,12.15,85.63,14.11,128.61.61,13.34,1.24,27.14,2.1,40.34,1,14.78,4.77,30.41,8.45,45.52q.92,3.77,1.8,7.45c3.42,14.38,7.5,29,12.1,43.58,16.26,51.24,37.64,87.71,67.27,114.77,13.56,12.73,29.37,22.54,44.66,32,25.3,15.69,49.19,30.5,63.79,57.45,6.1,11.27,7,22.86,2.77,34.45-3.29,8.92-9.72,17.7-18.61,25.4a97.53,97.53,0,0,1-28.44,17c-29.72,11.48-61.21,20.54-91.67,29.31-76.07,21.9-154.72,44.54-211.45,106.63-11.79,12.91-25.56,24.22-38.87,35.17a552.46,552.46,0,0,1-75.72,52.3c-10.56,6.05-21.67,11.6-32.42,17l-8.73,4.37a188.7,188.7,0,0,1-61.4,19.12,275.75,275.75,0,0,1-31.88,2.32c-5,.07-10.23.1-16,.1-10,0-20.15-.1-30-.19s-19.88-.19-29.68-.19c-7.07,0-13.36,0-19.22.15-4.62.08-9.32.22-13.86.36-7,.21-13.63.42-20.11.42-4.15,0-7.8-.08-11.14-.26-30.83-6.93-62-22.75-95.39-48.36-29.51-22.66-56.9-49.87-83.39-76.18-11.55-11.47-22.45-22.3-33.46-32.72-13.46-12.73-31.23-14.37-45.21-14.37-7.11,0-14.45.48-21.54.95-6.9.45-14,.92-20.75.92-2.64,0-5.05-.07-7.36-.21l-4.5-.27c-10.79-.65-21.94-1.32-32.38-3.12-19.75-3.4-35.32-9.39-47.59-18.29-13.25-9.81-22.58-24.08-28.52-43.62-11.66-38.33-35.9-70-59.34-100.72-14.65-19.17-29.8-39-42.05-60.52-7.62-13.39-9.78-25.21-6.61-36.14,6.53-22.48,35.33-37.75,63.17-52.53C135.39,687.53,156,676.6,168.31,663a26,26,0,0,0,6.56-22.65,29.87,29.87,0,0,0-15.94-21c-35.69-18-58.25-46.26-67.07-83.92-7.08-30.22-4.87-66.09,6.39-103.72a311.52,311.52,0,0,1,47.8-95.1,215.3,215.3,0,0,1,26-29.15c26.94-24.78,56.69-37.87,86-37.87a102.73,102.73,0,0,1,22.56,2.54c10,2.26,20.68,6.1,30.74,9.85,10.24,3.81,21.32,8.94,33.05,14.36,26.37,12.2,56.26,26,81.33,26,17.5,0,30.87-6.5,40.87-19.87,6.87-9.18,13.17-20.18,19.85-34.61,5.58-12.06,10.57-25,15.39-37.59,16.48-42.85,33.52-87.16,78.11-109.41,60.49-30.18,124.71-59.64,186.51-59.64m0-1c-63.75,0-129.92,31.29-187,59.74-58.22,29-69.57,94.71-94,147.47-5.8,12.55-12.16,24.29-19.74,34.43-10.6,14.17-24.49,19.47-40.07,19.47-35.59,0-80-27.65-114-40.33-10.61-3.95-20.93-7.65-30.87-9.89a103.27,103.27,0,0,0-22.78-2.56c-33.07,0-62.77,16.13-86.7,38.14A216.19,216.19,0,0,0,145.25,336c-61.44,82-98.1,228,13.23,284.23,15.46,7.82,21.72,28.18,9.09,42.09C130.39,703.3,19.08,718.89,58,787.27c32.07,56.32,82.48,99.19,101.3,161,6.09,20,15.62,34.31,28.88,44.13,13.57,9.84,30.14,15.39,48,18.47,11.92,2.06,24.44,2.63,37,3.41,2.43.15,4.91.21,7.42.21,13.6,0,28.26-1.87,42.3-1.87,16.63,0,32.4,2.63,44.52,14.09,62.35,59,128.59,138.64,212.79,157.53,3.63.19,7.4.27,11.28.27,10.85,0,22.5-.58,34-.78q9.48-.17,19.2-.15c19.64,0,39.81.38,59.68.38q8.06,0,16-.1a275.52,275.52,0,0,0,32-2.33,190.45,190.45,0,0,0,61.72-19.22c13.86-7,27.81-13.69,41.2-21.36a551.9,551.9,0,0,0,75.86-52.39c13.55-11.14,27.16-22.33,39-35.26,79.17-86.65,198.63-95.48,302.74-135.69,31.66-12.23,63.35-44,44.8-78.26-23.85-44-73.42-56.64-108.65-89.73-34.24-31.27-53.4-71.47-67-114.34-4.53-14.28-8.59-28.83-12.09-43.51-4-16.92-9.09-35.62-10.22-52.8-6.32-96.44.7-208.68-79.09-278.77-10.69-9.34-21.53-18.59-33.07-26.92C957.09,196.83,924.74,145.25,878,103.06,843.49,72,805.46,60.28,766.53,60.28Z"/><path d="M758.37,91.46a158.35,158.35,0,0,1,54.22,9.16,156.2,156.2,0,0,1,51.08,31.15c18.6,16.72,35,35.26,50.91,53.18,21.89,24.7,44.53,50.23,72.53,70.41,11.45,8.25,22.2,17.48,31.37,25.49,29.16,25.55,48.66,59.42,59.61,103.54,9.7,39.09,11.73,81.25,13.68,122,.61,12.65,1.23,25.72,2.08,38.24,1,14,4.59,28.86,8.1,43.19q.88,3.59,1.73,7.1c3.28,13.65,7.17,27.57,11.56,41.38,15.53,48.69,35.86,83.35,63.95,109.07,12.75,12.17,27.62,21.56,42,30.64,23.75,15,46.19,29.15,59.82,54.77,5.68,10.68,6.49,21.66,2.4,32.64-3.17,8.5-9.34,16.87-17.84,24.21a93.7,93.7,0,0,1-27.21,16.22c-28.24,10.9-58.16,19.52-87.1,27.85-72.26,20.81-147,42.32-200.92,101.19-11.22,12.24-24.3,23-37,33.34a525.63,525.63,0,0,1-72,49.58c-10,5.74-20.59,11-30.81,16.09l-8.29,4.14A179.63,179.63,0,0,1,744,1154.18a262.5,262.5,0,0,1-30.28,2.2c-4.84.07-9.95.1-15.62.1-9.35,0-18.9-.09-28.15-.18s-18.65-.17-27.85-.17c-6.84,0-12.91,0-18.56.15-4.38.08-8.85.21-13.16.35-6.68.2-13,.4-19.15.4-3.92,0-7.37-.08-10.53-.24-29.52-6.56-59.41-21.56-91.38-45.87-28.3-21.51-54.59-47.36-80-72.35-11-10.84-21.44-21.07-31.95-30.92-13-12.15-30.12-13.71-43.61-13.71-6.68,0-13.56.43-20.23.85-6.48.41-13.18.83-19.49.83-2.67,0-5.08-.07-7.39-.22l-4.27-.27c-10.32-.64-21-1.31-31-3-18.86-3.28-33.74-9-45.48-17.47-12.51-9.33-21.31-22.88-26.9-41.43-11-36.43-33.87-66.59-56-95.75-13.81-18.2-28.1-37-39.64-57.44-7.18-12.68-9.19-23.89-6.17-34.25,6.23-21.36,33.59-35.88,60-49.93,18.94-10.05,38.52-20.45,50.24-33.33a24.82,24.82,0,0,0,6.29-21.58,28.33,28.33,0,0,0-15.05-19.94c-33.66-17.1-54.91-43.84-63.18-79.48-6.66-28.69-4.48-62.73,6.28-98.44a296.23,296.23,0,0,1,45.6-90.29,205.12,205.12,0,0,1,24.78-27.65c25.71-23.55,54.08-36,82-36a98.12,98.12,0,0,1,21.33,2.37c9.53,2.13,19.68,5.76,29.26,9.29,9.77,3.6,20.33,8.46,31.52,13.59,26.29,12.08,53.48,24.56,77.34,24.56,16.71,0,29.49-6.17,39.06-18.88,6.56-8.7,12.59-19.13,19-32.82,5.34-11.43,10.13-23.72,14.77-35.61C522.34,211,538.71,169,581.15,147.92c57.5-28.57,118.55-56.46,177.22-56.46m0-1c-60.56,0-123.43,29.62-177.66,56.57-55.42,27.53-66.47,89.75-89.86,139.77-5.56,11.89-11.64,23-18.89,32.64-10.14,13.45-23.4,18.48-38.26,18.48-33.88,0-76.09-26.13-108.51-38.1-10.1-3.73-19.92-7.22-29.39-9.33a98.67,98.67,0,0,0-21.55-2.4c-31.53,0-59.86,15.34-82.7,36.26a206,206,0,0,0-24.9,27.79C108.12,430,73.08,568.39,178.28,621.84c14.6,7.43,20.5,26.75,8.48,40-35.38,38.89-141,53.76-104.25,118.68,30.25,53.48,77.85,94.25,95.56,153,5.73,19,14.73,32.59,27.26,41.94,13,9.38,28.83,14.69,45.91,17.65,11.4,2,23.36,2.56,35.35,3.33,2.44.16,4.93.22,7.45.22,12.79,0,26.53-1.68,39.72-1.68,16,0,31.22,2.48,42.93,13.44,59.81,56,123.35,131.56,203.89,149.41,3.43.18,7,.25,10.67.25,10.32,0,21.41-.55,32.34-.74q9.16-.16,18.54-.15c18.43,0,37.35.35,56,.35q7.86,0,15.63-.1a262.36,262.36,0,0,0,30.4-2.21,181.36,181.36,0,0,0,58.64-18.23c13.17-6.62,26.42-13,39.15-20.26A525.16,525.16,0,0,0,914,1067c12.88-10.56,25.82-21.17,37.06-33.43,75.28-82.15,188.74-90.6,287.64-128.78,30.25-11.68,60.49-41.9,43.17-74.46-22.29-41.89-68.92-54.05-102-85.66-32.48-29.74-50.69-67.93-63.68-108.65-4.32-13.56-8.2-27.37-11.54-41.31-3.85-16.06-8.7-33.81-9.81-50.13-6.21-91.51.19-198-75.71-264.49-10.16-8.87-20.48-17.64-31.45-25.54C939.65,219.92,908.83,171,864.34,131c-32.8-29.5-69-40.56-106-40.56Z"/><path d="M750.21,121.63a150.55,150.55,0,0,1,51.4,8.65A148.23,148.23,0,0,1,850,159.72c17.65,15.81,33.24,33.34,48.33,50.29,20.78,23.34,42.26,47.48,68.82,66.57,10.86,7.81,21.05,16.54,29.75,24.11,27.66,24.17,46.2,56.21,56.68,97.94,9.28,37,11.3,76.87,13.25,115.45.6,12,1.23,24.31,2.06,36.14.94,13.28,4.4,27.3,7.76,40.87.56,2.28,1.12,4.53,1.66,6.75,3.13,12.92,6.83,26.1,11,39.18,14.8,46.14,34.07,79,60.62,103.38,11.94,11.61,25.88,20.58,39.36,29.26,22.21,14.29,43.19,27.8,55.85,52.08,5.26,10.09,5.94,20.46,2,30.83-3,8.07-9,16-17.07,23a89.87,89.87,0,0,1-26,15.44c-26.76,10.32-55.11,18.49-82.53,26.39-68.44,19.72-139.22,40.1-190.38,95.74-10.64,11.57-23,21.7-35,31.51a498.87,498.87,0,0,1-68.2,46.86c-9.5,5.42-19.51,10.4-29.19,15.2l-7.86,3.92a170.57,170.57,0,0,1-55.24,17.14,249.3,249.3,0,0,1-28.68,2.09c-4.7.07-9.67.1-15.21.1-8.73,0-17.66-.08-26.29-.16s-17.42-.16-26-.16c-6.62,0-12.48,0-17.92.14-4.15.07-8.37.2-12.46.33-6.35.19-12.34.38-18.21.38-3.69,0-6.94-.07-9.92-.23-28.2-6.18-56.78-20.37-87.38-43.38-27.09-20.37-52.27-44.85-76.63-68.52-10.5-10.2-20.41-19.84-30.43-29.12-12.49-11.58-29-13.06-42-13.06-6.24,0-12.67.38-18.89.76-6.05.36-12.31.74-18.22.74-2.69,0-5.12-.07-7.43-.23l-4-.26c-9.84-.64-20-1.29-29.56-3-18-3.15-32.16-8.6-43.37-16.65-11.78-8.86-20-21.69-25.28-39.23-10.31-34.52-31.85-63.12-52.68-90.78-13-17.23-26.39-35-37.24-54.35-6.73-12-8.6-22.56-5.73-32.35,5.93-20.23,31.86-34,56.92-47.34,17.93-9.53,36.48-19.39,47.61-31.6a23.62,23.62,0,0,0,6-20.5,26.8,26.8,0,0,0-14.17-18.89c-31.63-16.18-51.57-41.42-59.29-75-6.23-27.15-4.1-59.37,6.18-93.17a281,281,0,0,1,43.4-85.47,194.89,194.89,0,0,1,23.51-26.15c24.48-22.33,51.47-34.13,78-34.13a93.54,93.54,0,0,1,20.11,2.21c9,2,18.69,5.41,27.79,8.74,9.29,3.4,19.34,8,30,12.83,24.93,11.36,50.7,23.1,73.35,23.1,15.92,0,28.11-5.85,37.25-17.88,6.25-8.23,12-18.09,18.14-31,5.11-10.8,9.7-22.41,14.14-33.63,15.17-38.37,30.86-78,71.16-98,24.52-12.13,53.09-25.93,81.85-36.19,32.24-11.51,60.4-17.1,86.08-17.1m0-1c-57.38,0-116.94,28-168.37,53.39-52.62,26-63.38,84.79-85.76,132.07-5.32,11.24-11.13,21.76-18,30.85-9.67,12.73-22.31,17.49-36.45,17.49-32.18,0-72.2-24.61-103-35.87-9.59-3.51-18.92-6.79-27.92-8.78a94.12,94.12,0,0,0-20.32-2.23c-30,0-56.95,14.54-78.71,34.39A195.78,195.78,0,0,0,188,368.23c-55.59,73.62-89,204.51,10,255.17,13.74,7,19.27,25.32,7.87,37.82-33.58,36.84-133.45,51-98.93,112.46,28.43,50.63,73.22,89.3,89.83,144.93,5.37,18,13.84,30.87,25.64,39.75,12.41,8.91,27.52,14,43.8,16.84,10.87,1.91,22.27,2.48,33.71,3.24,2.45.16,5,.23,7.5.23,12,0,24.78-1.49,37.11-1.49,15.4,0,30,2.33,41.34,12.8,57.28,53.08,118.11,124.48,195,141.29,3.24.17,6.6.23,10.06.23,9.79,0,20.31-.52,30.68-.71q8.84-.16,17.9-.14c17.22,0,34.89.32,52.31.32q7.65,0,15.22-.1a249.2,249.2,0,0,0,28.8-2.1,172.26,172.26,0,0,0,55.56-17.24c12.48-6.26,25-12.27,37.1-19.15a498.45,498.45,0,0,0,68.34-47c12.21-10,24.47-20,35.14-31.6,71.4-77.64,178.84-85.72,272.53-121.87,28.83-11.12,57.64-39.77,41.54-70.67-20.72-39.74-64.43-51.47-95.4-81.59-30.71-28.2-48-64.39-60.36-103-4.11-12.84-7.81-25.92-11-39.11-3.68-15.2-8.3-32-9.39-47.45-6.1-86.58-.31-187.29-72.34-250.22-9.64-8.39-19.43-16.69-29.83-24.17C922.21,243,892.91,196.8,850.7,159c-31.12-27.89-65.4-38.34-100.5-38.34Z"/><path d="M742,151.81A142.74,142.74,0,0,1,790.62,160a140.26,140.26,0,0,1,45.78,27.72c16.69,14.9,31.47,31.42,45.75,47.4,19.67,22,40,44.73,65.1,62.73,9.24,6.63,17.93,13.88,28.13,22.73,26.17,22.79,43.75,53,53.75,92.35C1038,447.76,1040,485.38,1042,521.76c.6,11.26,1.23,22.9,2,34,.92,12.52,4.22,25.75,7.41,38.53.54,2.16,1.07,4.3,1.59,6.4,3,12.19,6.5,24.63,10.48,37,14.26,44.19,31.94,74.33,57.29,97.68,11.13,11.05,24.13,19.61,36.7,27.88,20.67,13.6,40.19,26.44,51.88,49.39a34.44,34.44,0,0,1,1.66,29c-6.84,17.86-25.68,30.55-41,36.47-25.28,9.75-52.06,17.47-78,24.93-64.63,18.62-131.47,37.88-179.85,90.29-10.06,10.89-21.78,20.44-33.11,29.68a472,472,0,0,1-64.44,44.14c-9,5.11-18.43,9.79-27.57,14.32l-7.43,3.7a161.51,161.51,0,0,1-52.16,16.15,236.12,236.12,0,0,1-27.08,2c-4.56.07-9.41.1-14.81.1-8.11,0-16.4-.07-24.42-.14s-16.18-.14-24.17-.14c-6.39,0-12,0-17.27.14-3.92.07-7.9.19-11.76.31-6,.19-11.7.36-17.25.36-3.47,0-6.52-.07-9.32-.21-26.89-5.81-54.16-19.18-83.39-40.89-25.88-19.22-50-42.34-73.26-64.7-10-9.57-19.39-18.61-28.9-27.32-12-11-27.93-12.41-40.45-12.41-5.8,0-11.76.34-17.53.66-5.62.32-11.43.64-16.93.64-2.73,0-5.18-.08-7.5-.24l-3.81-.26c-9.37-.63-19.07-1.28-28.15-2.89-17.08-3-30.58-8.2-41.26-15.83-11-8.38-18.78-20.5-23.66-37-9.63-32.62-29.82-59.66-49.35-85.81-12.14-16.26-24.69-33.07-34.83-51.27-6.28-11.28-8-21.24-5.29-30.46,5.64-19.11,30.12-32.14,53.8-44.74,16.93-9,34.44-18.33,45-29.87a22.43,22.43,0,0,0,5.73-19.43,25.27,25.27,0,0,0-13.28-17.83c-29.6-15.25-48.23-39-55.4-70.59-5.81-25.62-3.71-56,6.07-87.89a265.68,265.68,0,0,1,41.21-80.66,184.74,184.74,0,0,1,22.25-24.65c23.25-21.1,48.86-32.25,74-32.25a88.94,88.94,0,0,1,18.88,2c8.57,1.86,17.33,4.93,26.31,8.18,8.82,3.19,18.35,7.5,28.45,12.05C403.69,361,428,372,449.48,372c15.14,0,26.73-5.52,35.44-16.89,5.94-7.75,11.44-17,17.29-29.24,4.88-10.17,9.27-21.09,13.51-31.65,14.52-36.13,29.54-73.48,67.68-92.25,23.19-11.41,50.21-24.39,77.34-34,30.45-10.82,57-16.08,81.3-16.08m0-1c-54.2,0-110.46,26.29-159.08,50.21-49.83,24.52-60.28,79.83-81.65,124.37-5.08,10.58-10.61,20.5-17.18,29.06-9.21,12-21.21,16.5-34.65,16.5C419,371,381.18,347.86,352,337.32c-9.08-3.29-17.92-6.36-26.44-8.22A89.54,89.54,0,0,0,306.49,327c-28.45,0-54,13.75-74.72,32.51a185.62,185.62,0,0,0-22.37,24.79c-52.67,69.42-84.45,192.76,8.46,240.64,12.89,6.66,18,23.89,7.27,35.69-31.77,34.8-125.92,48.23-93.62,106.23,26.62,47.79,68.59,84.36,84.09,136.88,5,17,12.95,29.15,24,37.55,11.83,8.45,26.21,13.28,41.69,16,10.34,1.83,21.19,2.41,32.06,3.16,2.47.17,5,.24,7.57.24,11.13,0,23-1.3,34.46-1.3,14.8,0,28.89,2.18,39.78,12.15C449.91,1021.72,508,1089,581.26,1104.75c3,.16,6.2.22,9.45.22,9.26,0,19.22-.5,29-.67q8.52-.15,17.26-.14c16,0,32.41.28,48.59.28q7.45,0,14.83-.1a236.1,236.1,0,0,0,27.19-2,163.17,163.17,0,0,0,52.47-16.25c11.79-5.9,23.65-11.56,35-18a471.7,471.7,0,0,0,64.58-44.24c11.54-9.4,23.13-18.85,33.22-29.77,67.51-73.13,168.95-80.84,257.43-115,27.41-10.57,54.79-37.65,39.9-66.88-19.15-37.59-59.93-48.88-88.77-77.52-28.95-26.67-45.29-60.86-57-97.28-3.9-12.12-7.42-24.46-10.46-36.92-3.51-14.35-7.91-30.19-9-44.77-6-81.65-.82-176.6-69-235.94-9.12-7.91-18.37-15.74-28.21-22.79C904.78,266.12,877,222.58,837.07,186.94c-29.43-26.28-61.84-36.13-95-36.13Z"/><path d="M733.88,182c34.34,0,63.41,11,88.89,33.66,15.74,14,29.69,29.51,43.17,44.5,18.56,20.64,37.74,42,61.39,58.89,8.72,6.23,16.9,13,26.51,21.35,24.67,21.41,41.3,49.79,50.82,86.76,8.44,32.76,10.45,68.11,12.4,102.29.6,10.56,1.22,21.48,2,31.93.9,11.77,4,24.19,7.07,36.2.52,2,1,4.06,1.52,6.05,2.83,11.45,6.17,23.16,9.94,34.79,13.52,41.61,30.18,70,54,92,10.32,10.49,22.38,18.63,34,26.49,19.13,12.9,37.2,25.09,47.92,46.7a32.49,32.49,0,0,1,1.3,27.21c-6.57,16.87-24.47,28.88-39,34.49-23.8,9.17-49,16.44-73.39,23.47-60.82,17.53-123.71,35.66-169.31,84.84-9.48,10.22-20.52,19.18-31.19,27.85a445.26,445.26,0,0,1-60.68,41.43c-8.45,4.79-17.35,9.19-26,13.44l-7,3.47A152.45,152.45,0,0,1,719.19,1075a222.94,222.94,0,0,1-25.48,1.86c-4.42.06-9.14.1-14.42.1-7.49,0-15.14-.06-22.54-.13s-14.93-.13-22.31-.13c-6.18,0-11.62,0-16.65.14-3.68.07-7.43.18-11.06.3-5.68.18-11.05.34-16.3.34-3.24,0-6.08-.06-8.7-.2-25.57-5.43-51.54-18-79.39-38.4C477.67,1020.77,454.68,999,432.45,978c-9.44-8.94-18.36-17.37-27.37-25.52-11.53-10.42-26.85-11.76-38.91-11.76-5.35,0-10.84.29-16.16.57s-10.54.55-15.62.55c-2.77,0-5.25-.08-7.58-.25l-3.58-.25a254.61,254.61,0,0,1-26.74-2.81c-16.19-2.89-29-7.81-39.15-15-10.31-7.91-17.52-19.31-22-34.85-9-30.72-27.79-56.2-46-80.84-11.3-15.29-23-31.09-32.43-48.19C151,749,149.45,739.7,152,731c5.34-18,28.39-30.27,50.68-42.15,15.93-8.49,32.41-17.27,42.35-28.13a21.23,21.23,0,0,0,5.45-18.35,23.74,23.74,0,0,0-12.39-16.77c-27.57-14.33-44.9-36.58-51.51-66.15-5.38-24.08-3.32-52.65,6-82.62a250.42,250.42,0,0,1,39-75.85,172.46,172.46,0,0,1,21-23.15c15.28-13.86,39.84-30.38,70-30.39a84.54,84.54,0,0,1,17.69,1.89c8.08,1.73,16.36,4.6,24.84,7.63s17.36,7,26.91,11.28c22.19,9.92,45.13,20.18,65.36,20.18,14.35,0,25.35-5.2,33.63-15.89,5.63-7.27,10.86-16,16.44-27.45,4.64-9.53,8.83-19.77,12.89-29.68,13.87-33.89,28.21-68.93,64.2-86.53,22.87-11.19,47.33-22.86,72.83-31.88C686,186.91,711.06,182,733.88,182m0-1c-51,0-104,24.62-149.78,47-47,23-57.19,74.86-77.55,116.67-4.84,9.93-10.1,19.23-16.33,27.28-8.75,11.3-20.12,15.51-32.84,15.51-28.78,0-64.41-21.57-91.93-31.41-8.58-3.07-16.92-5.94-25-7.66a85.15,85.15,0,0,0-17.9-1.91c-26.91,0-51.14,12.92-70.68,30.65a173.09,173.09,0,0,0-21.11,23.29c-49.74,65.22-79.9,181,6.87,226.11,12,6.28,16.81,22.47,6.66,33.56-30,32.75-118.4,45.47-88.31,100,24.8,44.94,64,79.42,78.35,128.82,4.65,16,12.06,27.43,22.4,35.36,11.25,8,24.9,12.58,39.58,15.2,9.81,1.76,20.11,2.34,30.42,3.08,2.5.18,5.06.25,7.66.25,10.28,0,21.21-1.12,31.77-1.12,14.2,0,27.75,2,38.24,11.5,52.2,47.19,107.64,110.31,177.19,125,2.84.15,5.8.2,8.83.2,8.73,0,18.12-.47,27.37-.64q8.21-.15,16.63-.14c14.78,0,29.91.25,44.85.25,4.84,0,9.66,0,14.43-.1a223,223,0,0,0,25.59-1.87,154.08,154.08,0,0,0,49.39-15.26c11.1-5.54,22.27-10.85,33-16.94a445,445,0,0,0,60.82-41.52c10.87-8.82,21.79-17.69,31.3-27.94,63.62-68.62,159.05-76,242.33-108.06,26-10,51.94-35.52,38.27-63.08-17.58-35.45-55.44-46.3-82.14-73.45-27.18-25.13-42.58-57.32-53.72-91.59-3.69-11.4-7-23-9.92-34.72-3.33-13.49-7.51-28.38-8.56-42.09-5.88-76.72-1.33-165.9-65.58-221.66-8.59-7.43-17.32-14.78-26.59-21.41-40.57-29-66.83-69.86-104.47-103.33C795.68,190.23,765.15,181,733.88,181Z"/><path d="M725.71,212.16c32.22,0,59.5,10.28,83.42,31.44,14.79,13.09,27.91,27.59,40.59,41.61,17.44,19.29,35.48,39.24,57.67,55,8.2,5.84,15.88,12.21,24.89,20,23.18,20,38.84,46.58,47.89,81.16,8,30.65,10,63.73,12,95.72.6,9.86,1.22,20.06,2,29.83.89,11,3.85,22.63,6.73,33.87.49,1.92,1,3.83,1.45,5.7,2.68,10.72,5.84,21.69,9.4,32.59,12.78,39,28.4,65.64,50.65,86.3,9.5,9.92,20.61,17.63,31.36,25.09,17.59,12.21,34.21,23.74,44,44a30.55,30.55,0,0,1,.94,25.41c-6.3,15.88-23.26,27.21-37,32.52-22.32,8.6-46,15.41-68.83,22-57,16.44-116,33.44-158.77,79.39-8.9,9.55-19.26,17.92-29.27,26a418.48,418.48,0,0,1-56.92,38.71c-7.92,4.48-16.26,8.59-24.33,12.56l-6.57,3.25a143.4,143.4,0,0,1-46,14.17,209.73,209.73,0,0,1-23.88,1.75c-4.29.06-8.89.1-14,.1-6.86,0-13.87-.06-20.64-.11s-13.68-.11-20.44-.11c-6,0-11.22,0-16,.13-3.45.06-7,.17-10.35.28-5.35.17-10.41.32-15.35.32-3,0-5.66-.06-8.09-.18-24.26-5.06-48.93-16.81-75.41-35.91-23.46-16.93-45.35-37.33-66.52-57.05-8.91-8.3-17.32-16.14-25.82-23.71-11-9.79-25.07-11.11-37.39-11.11-4.89,0-9.9.24-14.75.48s-9.62.46-14.27.46c-2.83,0-5.35-.09-7.7-.26l-3.34-.25a243.5,243.5,0,0,1-25.33-2.74c-15.3-2.77-27.42-7.42-37-14.19-9.57-7.43-16.25-18.11-20.43-32.65-8.27-28.82-25.76-52.74-42.68-75.87-10.47-14.31-21.29-29.11-30-45.11C176,743,174.54,734.23,177,726.15c5-16.86,26.65-28.4,47.55-39.56,14.93-8,30.37-16.21,39.72-26.4a20,20,0,0,0,5.18-17.27,22.21,22.21,0,0,0-11.5-15.71c-25.54-13.4-41.56-34.16-47.62-61.71-11-49.8,13.54-110.4,42.68-148.38a162,162,0,0,1,19.72-21.65c14.42-13,37.57-28.51,66-28.51a80,80,0,0,1,16.47,1.73,189.42,189.42,0,0,1,23.36,7.07c7.87,2.78,16.37,6.53,25.38,10.51,20.82,9.2,42.35,18.72,61.36,18.72,13.56,0,24-4.87,31.82-14.9,5.33-6.8,10.28-15,15.58-25.66,4.41-8.9,8.4-18.46,12.26-27.7,13.21-31.65,26.88-64.37,60.73-80.82,21.48-10.44,44.45-21.33,68.33-29.72,26.87-9.44,50.33-14,71.72-14m0-1c-47.84,0-97.47,23-140.49,43.86-44.24,21.5-54.09,69.9-73.45,109a147.18,147.18,0,0,1-15.48,25.49c-8.29,10.58-19,14.52-31,14.52-27.07,0-60.52-20.05-86.4-29.18a191,191,0,0,0-23.49-7.11A80.66,80.66,0,0,0,338.7,366c-25.37,0-48.23,12.12-66.69,28.77a162.57,162.57,0,0,0-19.85,21.78c-46.82,61-75.35,169.27,5.27,211.58,11.17,5.89,15.58,21,6.05,31.42-28.17,30.71-110.88,42.71-83,93.78,23,42.1,59.33,74.47,72.62,120.77,4.29,15,11.17,25.71,20.77,33.17,10.68,7.52,23.59,11.87,37.47,14.38,9.29,1.68,19,2.27,28.78,3,2.54.19,5.13.26,7.78.26,9.41,0,19.36-.94,29-.94,13.61,0,26.63,1.87,36.72,10.86C463.32,979,516.05,1038,581.94,1051.72c2.65.13,5.4.19,8.22.19,8.21,0,17-.44,25.72-.6,5.27-.1,10.62-.13,16-.13,13.54,0,27.39.22,41.08.22,4.71,0,9.41,0,14.06-.1a209.82,209.82,0,0,0,24-1.76,145,145,0,0,0,46.31-14.27c10.41-5.18,20.88-10.14,30.95-15.83a418.29,418.29,0,0,0,57.06-38.8c10.2-8.25,20.45-16.53,29.38-26.11,59.74-64.11,149.16-71.08,227.23-101.15,24.58-9.47,49.09-33.39,36.63-59.29-16-33.3-50.94-43.71-75.52-69.38-25.41-23.6-39.88-53.78-50.4-85.9-3.48-10.68-6.63-21.55-9.38-32.52-3.16-12.63-7.11-26.58-8.15-39.41-5.77-71.79-1.84-155.21-62.2-207.39-8.07-7-16.26-13.83-25-20-38.08-27.13-62.81-65.31-98.18-96.59-26.06-23.05-54.73-31.69-84.08-31.69Z"/><path d="M717.55,242.34c30.1,0,55.6,9.56,78,29.23,13.84,12.18,26.13,25.67,38,38.72,16.33,17.94,33.22,36.49,54,51.21,7.67,5.44,14.85,11.37,23.27,18.59,21.68,18.66,36.39,43.38,45,75.57,7.6,28.55,9.6,59.35,11.54,89.14.6,9.17,1.21,18.64,2,27.72.87,10.26,3.67,21.08,6.38,31.54.47,1.81.93,3.59,1.38,5.35,2.53,10,5.51,20.21,8.86,30.39,12,36.43,26.63,61.3,47.32,80.61,8.69,9.35,18.86,16.65,28.69,23.7,16.05,11.51,31.22,22.39,40,41.33a28.62,28.62,0,0,1,.58,23.61c-6,14.89-22,25.54-35,30.53-20.84,8-42.91,14.39-64.26,20.55-53.19,15.35-108.2,31.22-148.23,73.94-8.32,8.88-18,16.66-27.35,24.19a391.7,391.7,0,0,1-53.16,36c-7.4,4.16-15.18,8-22.71,11.68l-6.14,3a134.36,134.36,0,0,1-42.91,13.18,196.55,196.55,0,0,1-22.27,1.64c-4.16.06-8.64.1-13.69.1-6.22,0-12.58,0-18.73-.09s-12.42-.09-18.55-.09c-5.77,0-10.82,0-15.44.13-3.21.06-6.49.16-9.65.26-5,.16-9.76.31-14.4.31-2.78,0-5.23-.05-7.48-.17-23-4.68-46.32-15.62-71.43-33.43-22.25-15.78-43-34.82-63.16-53.24-8.37-7.66-16.27-14.9-24.26-21.9-10.52-9.22-24.05-10.46-35.91-10.46-4.41,0-8.93.2-13.3.39s-8.68.38-12.89.38c-2.91,0-5.48-.09-7.86-.28l-3.11-.24a232.47,232.47,0,0,1-23.92-2.66c-14.4-2.64-25.83-7-34.95-13.38-8.82-7-15-16.91-18.79-30.44-7.59-26.92-23.73-49.27-39.35-70.9-9.63-13.34-19.59-27.14-27.62-42-4.94-9.16-6.24-17.27-4-24.78,4.74-15.74,24.92-26.53,44.43-37,13.93-7.45,28.33-15.15,37.09-24.66a18.84,18.84,0,0,0,4.9-16.2,20.68,20.68,0,0,0-10.62-14.66C254.18,616.3,239.47,597,234,571.51c-10-46.45,13.05-102.92,40.38-138.29a151.52,151.52,0,0,1,18.46-20.15c13.55-12.15,35.31-26.64,62-26.64A75.46,75.46,0,0,1,370.07,388,178.57,178.57,0,0,1,392,394.51c7.4,2.57,15.39,6.05,23.84,9.74,19.45,8.49,39.56,17.26,57.36,17.26,12.77,0,22.59-4.55,30-13.9,5-6.32,9.7-13.91,14.73-23.87,4.18-8.27,8-17.14,11.63-25.72,12.56-29.41,25.55-59.81,57.26-75.1,20.09-9.69,41.57-19.8,63.82-27.57,25.08-8.76,47-13,66.93-13m0-1c-44.66,0-91,21.29-131.19,40.68-41.44,20-51,64.94-69.34,101.27A138.32,138.32,0,0,1,502.39,407c-7.83,9.86-17.95,13.53-29.23,13.53-25.37,0-56.62-18.53-80.87-26.95a180.06,180.06,0,0,0-22-6.55,76.11,76.11,0,0,0-15.45-1.59c-23.83,0-45.33,11.32-62.7,26.9a152.07,152.07,0,0,0-18.58,20.28c-43.89,56.82-70.8,157.53,3.68,197,10.31,5.51,14.35,19.61,5.45,29.29C256.3,687.61,179.31,698.89,205,746.51c21.16,39.25,54.7,69.53,66.88,112.72,3.94,14,10.28,24,19.15,31,10.1,7.06,22.28,11.17,35.36,13.56,8.76,1.61,17.94,2.19,27.14,2.91,2.59.2,5.24.28,7.94.28,8.51,0,17.47-.76,26.19-.76,13,0,25.54,1.71,35.25,10.21,47.13,41.31,97.16,96.15,159.38,108.81,2.45.12,5,.17,7.61.17,7.68,0,15.93-.41,24.07-.57,5.07-.1,10.22-.13,15.42-.13,12.3,0,24.86.19,37.28.19,4.59,0,9.17,0,13.71-.1a196.71,196.71,0,0,0,22.39-1.65A135.92,135.92,0,0,0,746,1009.85c9.72-4.81,19.5-9.43,28.89-14.72A391.58,391.58,0,0,0,828.17,959c9.53-7.67,19.1-15.37,27.46-24.28,55.85-59.6,139.26-66.2,212.12-94.24,23.16-8.91,46.23-31.27,35-55.5-14.44-31.15-46.45-41.13-68.89-65.31-23.65-22.07-37.18-50.24-47.08-80.21-3.27-10-6.24-20.09-8.84-30.33-3-11.78-6.72-24.77-7.73-36.73-5.66-66.86-2.35-144.51-58.83-193.11-7.55-6.47-15.21-12.88-23.34-18.65-35.58-25.26-58.8-60.76-91.88-89.86-24.38-21.44-51.18-29.48-78.61-29.48Z"/><path d="M709.38,272.51c28,0,51.69,8.84,72.49,27,12.9,11.27,24.35,23.76,35.43,35.83,15.22,16.59,31,33.74,50.23,47.36,7.14,5,13.82,10.53,21.65,17.22,20.19,17.28,33.94,40.17,42,70,7.18,26.44,9.18,55,11.11,82.57.59,8.47,1.21,17.22,2,25.61.85,9.51,3.49,19.52,6,29.21.44,1.69.88,3.36,1.31,5,2.38,9.26,5.18,18.74,8.32,28.2,11.3,33.85,24.87,57,44,74.91,7.87,8.79,17.09,15.66,26,22.31,14.52,10.82,28.23,21,36.05,38.65a26.7,26.7,0,0,1,.22,21.82c-5.76,13.9-20.84,23.86-33,28.55-19.36,7.44-39.87,13.37-59.7,19.09-49.38,14.26-100.44,29-137.69,68.49-7.74,8.21-16.73,15.4-25.43,22.36A364.93,364.93,0,0,1,761,969.95c-6.87,3.85-14.1,7.38-21.1,10.8l-5.7,2.79a125.31,125.31,0,0,1-39.83,12.19,183.36,183.36,0,0,1-20.67,1.52c-4,.06-8.41.1-13.37.1-5.58,0-11.28,0-16.79-.08s-11.13-.08-16.64-.08-10.45,0-14.87.13c-3,.06-6,.15-9,.24-4.69.15-9.12.29-13.44.29-2.55,0-4.8,0-6.87-.15-21.64-4.31-43.71-14.43-67.46-30.95-21-14.64-40.75-32.32-59.81-49.42-7.82-7-15.21-13.65-22.69-20.08-10.05-8.65-23.07-9.81-34.48-9.81-3.92,0-7.92.15-11.8.3s-7.71.29-11.45.29c-3,0-5.66-.1-8.07-.29l-2.87-.23a221.56,221.56,0,0,1-22.52-2.58c-13.5-2.51-24.25-6.62-32.84-12.56-8.09-6.48-13.7-15.72-17.16-28.25-6.91-25-21.7-45.81-36-65.93-8.8-12.37-17.89-25.16-25.22-38.94-7-13.08-6-23.86,3-33.9,8-9,21.65-16.3,34.82-23.36,12.93-6.93,26.3-14.09,34.46-22.93a17.64,17.64,0,0,0,4.63-15.12,19.16,19.16,0,0,0-9.73-13.6C276,618.79,262.6,601,257.63,577.52c-9.1-43.09,12.57-95.44,38.08-128.2a139.13,139.13,0,0,1,17.2-18.65c12.68-11.3,33.05-24.77,58-24.78a70.93,70.93,0,0,1,14,1.41,167.73,167.73,0,0,1,20.41,6c6.93,2.36,14.4,5.57,22.31,9C445.76,430,464.46,438,481,438c12,0,21.21-4.22,28.21-12.91A128.79,128.79,0,0,0,523.13,403c3.94-7.64,7.53-15.82,11-23.74,11.91-27.17,24.22-55.26,53.78-69.39,41.23-19.71,81.55-37.41,121.46-37.41m0-1c-41.48,0-84.49,19.62-121.89,37.51-38.65,18.48-47.9,60-65.24,93.57a129.5,129.5,0,0,1-13.77,21.91C501.11,433.64,491.61,437,481,437c-23.66,0-52.73-17-75.34-24.72a169.13,169.13,0,0,0-20.53-6A71.6,71.6,0,0,0,371,404.89c-22.29,0-42.43,10.52-58.71,25a141.58,141.58,0,0,0-17.32,18.78c-41,52.62-66.25,145.78,2.09,182.52,9.46,5.12,13.12,18.18,4.84,27.16C277.29,685,206,695.55,229.48,739.71c19.35,36.41,50.07,64.59,61.14,104.66,3.58,12.95,9.39,22.27,17.53,28.78,9.52,6.6,21,10.46,33.25,12.75,8.23,1.54,16.85,2.12,25.49,2.83,2.65.22,5.38.3,8.15.3,7.57,0,15.5-.59,23.25-.59,12.47,0,24.49,1.54,33.83,9.57,44.59,38.36,91.92,89.06,150.48,100.69,2.26.11,4.6.16,7,.16,7.15,0,14.84-.39,22.41-.53,4.88-.09,9.84-.13,14.85-.13,11,0,22.29.16,33.43.16,4.49,0,9,0,13.38-.1a183.57,183.57,0,0,0,20.79-1.53,126.85,126.85,0,0,0,40.14-12.28c9-4.45,18.11-8.72,26.84-13.61A364.9,364.9,0,0,0,811,937.45c8.86-7.09,17.76-14.21,25.53-22.45,52-55.1,129.37-61.32,197-87.34,21.75-8.36,43.38-29.14,33.36-51.7-12.88-29-42-38.54-62.26-61.25-21.88-20.53-34.47-46.7-43.76-74.53-3.06-9.24-5.85-18.64-8.3-28.13-2.81-10.92-6.32-23-7.32-34.05-5.55-61.93-2.85-133.82-55.45-178.83-7-6-14.16-11.92-21.72-17.27-33.09-23.39-54.78-56.21-85.59-83.13-22.69-19.83-47.63-27.26-73.15-27.26Z"/><path d="M701.21,302.69c25.86,0,47.79,8.11,67,24.8,11.95,10.36,22.58,21.84,32.85,32.94,14.11,15.23,28.69,31,46.51,43.52,6.62,4.66,12.8,9.7,20,15.84,18.7,15.9,31.49,37,39.1,64.39,6.76,24.33,8.75,50.6,10.68,76,.59,7.77,1.2,15.8,1.94,23.5.84,8.75,3.3,18,5.69,26.88.42,1.57.84,3.13,1.24,4.66,2.23,8.52,4.85,17.27,7.77,26,10.56,31.26,23.1,52.61,40.66,69.21,7.05,8.22,15.33,14.67,23.33,20.91,13,10.12,25.25,19.68,32.11,36a24.81,24.81,0,0,1-.14,20c-5.5,12.91-19.63,22.19-31,26.56-17.88,6.87-36.82,12.34-55.14,17.63-45.57,13.16-92.68,26.78-127.15,63-7.16,7.54-15.47,14.14-23.51,20.53a338.2,338.2,0,0,1-45.64,30.56c-6.34,3.53-13,6.78-19.48,9.91l-5.27,2.57a116.28,116.28,0,0,1-36.75,11.2A170.18,170.18,0,0,1,667,970.73c-3.92.06-8.19.1-13.07.1s-10,0-14.82-.06-9.83-.06-14.69-.06c-5.41,0-10.1,0-14.33.12-2.75.05-5.55.14-8.25.23-4.36.14-8.47.27-12.49.27-2.32,0-4.37,0-6.26-.13-45.54-8.8-83.37-42-120-74.08-7.27-6.38-14.14-12.4-21.09-18.25-9.6-8.08-22.13-9.17-33.13-9.17-3.39,0-6.86.11-10.21.22s-6.68.21-9.94.21-5.91-.1-8.37-.32l-2.63-.22a210.83,210.83,0,0,1-21.12-2.51c-12.61-2.38-22.66-6.22-30.73-11.75-7.35-6-12.43-14.52-15.54-26-6.25-23.17-19.72-42.46-32.75-61.12-7.93-11.35-16.12-23.09-22.73-35.69-6.26-12-5.32-22,3-31.21,7.44-8.31,20-15.05,32.13-21.57,11.92-6.4,24.24-13,31.81-21.19a16.45,16.45,0,0,0,4.35-14,17.63,17.63,0,0,0-8.84-12.54c-19.46-10.62-31.56-26.9-36-48.37-8.16-39.74,12.09-88,35.78-118.12A128.86,128.86,0,0,1,333,448.26c11.82-10.45,30.79-22.91,54.07-22.91a66.43,66.43,0,0,1,12.78,1.25A156.94,156.94,0,0,1,418.8,432c6.45,2.15,13.41,5.09,20.77,8.2,16.71,7.05,34,14.35,49.35,14.35,11.2,0,19.84-3.9,26.41-11.91a120.17,120.17,0,0,0,13-20.29c3.71-7,7.1-14.5,10.37-21.76,11.26-24.93,22.9-50.7,50.31-63.68,38.12-18,75.38-34.23,112.17-34.23m0-1c-38.29,0-78,18-112.6,34.33-35.85,17-44.8,55-61.14,85.87A120.73,120.73,0,0,1,514.56,442c-6.9,8.42-15.77,11.55-25.64,11.55-22,0-48.83-15.49-69.81-22.49a158.21,158.21,0,0,0-19.06-5.44,67.12,67.12,0,0,0-13-1.27c-20.76,0-39.53,9.72-54.73,23.16a131.12,131.12,0,0,0-16.06,17.28c-38,48.42-61.7,134,.5,168,8.6,4.74,11.9,16.75,4.23,25-22.77,24.57-88.24,34.38-67.06,75.11,17.59,33.54,45.44,59.64,55.41,96.61,3.22,11.94,8.5,20.55,15.91,26.59,8.94,6.13,19.66,9.76,31.14,11.93,7.7,1.46,15.77,2,23.85,2.75,2.75.24,5.57.32,8.45.32,6.58,0,13.43-.43,20.15-.43,11.94,0,23.49,1.36,32.48,8.94,42.06,35.42,86.68,82,141.58,92.57,2.06.1,4.19.14,6.38.14,6.62,0,13.74-.36,20.76-.5,4.7-.09,9.49-.12,14.31-.12,9.74,0,19.67.12,29.51.12,4.39,0,8.76,0,13.09-.1a170.48,170.48,0,0,0,19.18-1.42A117.79,117.79,0,0,0,723.25,959c8.34-4.09,16.73-8,24.79-12.51a338.24,338.24,0,0,0,45.78-30.65c8.2-6.51,16.42-13.05,23.61-20.62,48.08-50.59,119.47-56.44,181.92-80.43,20.33-7.81,40.53-27,31.73-47.91-11.31-26.85-37.46-36-55.64-57.18-20.12-19-31.77-43.16-40.44-68.84-2.85-8.52-5.46-17.18-7.75-25.93-2.64-10.06-5.92-21.15-6.9-31.37-5.44-57-3.36-123.13-52.07-164.56-6.5-5.52-13.1-11-20.1-15.89-30.6-21.51-50.77-51.66-79.29-76.4-21-18.22-44.07-25-67.68-25Z"/><path d="M693,332.86c23.75,0,43.88,7.39,61.56,22.58,11,9.45,20.8,19.93,30.28,30.05,13,13.88,26.43,28.23,42.79,39.67,6.46,4.51,12.66,9.62,18.41,14.46,17.2,14.53,29,33.76,36.18,58.81,6.34,22.22,8.33,46.22,10.26,69.43.59,7.07,1.19,14.38,1.91,21.38.82,8,3.12,16.41,5.34,24.54.4,1.46.79,2.89,1.17,4.31,2.09,7.79,4.52,15.8,7.23,23.8,9.82,28.68,21.33,48.27,37.33,63.51,6.23,7.65,13.55,13.68,20.64,19.5,11.46,9.43,22.28,18.33,28.18,33.29a23,23,0,0,1-.49,18.25c-4.38,10-15.51,19.38-29,24.57-16.41,6.29-33.78,11.32-50.58,16.18-41.75,12.07-84.92,24.55-116.6,57.59-6.58,6.86-14.21,12.88-21.59,18.7a311.51,311.51,0,0,1-41.88,27.84c-5.82,3.22-11.94,6.17-17.86,9l-4.84,2.34a107.26,107.26,0,0,1-33.67,10.21,157,157,0,0,1-17.47,1.3c-3.8.07-8,.1-12.83.1-4.26,0-8.6,0-12.79,0s-8.48,0-12.69,0c-5.34,0-9.74,0-13.85.12-2.51,0-5.07.13-7.55.21-4,.13-7.83.25-11.54.25-2.09,0-3.94,0-5.65-.12-42.63-8-78.25-38.39-112.69-67.8-6.71-5.73-13-11.14-19.47-16.42-9.13-7.5-20.73-8.53-31.91-8.53-2.83,0-5.71.07-8.49.14s-5.57.14-8.29.14c-3.43,0-6.23-.11-8.79-.34l-2.39-.22c-6.57-.59-13.35-1.2-19.72-2.43-11.72-2.25-21.08-5.83-28.62-10.93-6.61-5.53-11.17-13.33-13.92-23.85-5.56-21.24-17.66-38.94-29.37-56.06-7.11-10.4-14.47-21.16-20.38-32.69-12.34-24.19,9.39-35.9,32.4-48.29,10.92-5.88,22.21-12,29.19-19.46a15.27,15.27,0,0,0,4.08-13,16.06,16.06,0,0,0-7.95-11.46c-17.44-9.75-28.24-24.58-32.09-44.08C297.81,553,316.63,509,338.47,481.51a118.62,118.62,0,0,1,14.67-15.65c11-9.6,28.54-21,50.09-21a61.94,61.94,0,0,1,11.54,1.09,146.21,146.21,0,0,1,17.46,4.85c6,1.94,12.42,4.6,19.24,7.42,15.33,6.34,31.19,12.89,45.34,12.89,10.41,0,18.46-3.57,24.61-10.91a111.63,111.63,0,0,0,12.17-18.49c3.47-6.37,6.66-13.19,9.74-19.78,10.6-22.69,21.57-46.15,46.84-58,35-16.37,69.21-31.06,102.87-31.06m0-1c-35.11,0-71.51,16.29-103.29,31.15-33.06,15.46-41.7,50.06-57,78.17a112,112,0,0,1-12.06,18.33c-6.45,7.7-14.69,10.56-23.84,10.56-20.25,0-44.93-14-64.27-20.26A147.39,147.39,0,0,0,415,444.93a62.65,62.65,0,0,0-11.73-1.11c-19.23,0-36.63,8.92-50.75,21.29a120.67,120.67,0,0,0-14.79,15.78c-35.12,44.22-57.07,122.16-1.09,153.46a14.67,14.67,0,0,1,3.63,22.89c-21,22.52-80.76,31.64-61.75,68.89,15.74,30.71,40.81,54.7,49.67,88.55,2.86,10.93,7.6,18.83,14.29,24.39,8.36,5.67,18.35,9.05,29,11.11,7.18,1.39,14.68,2,22.21,2.67,2.88.26,5.85.35,8.88.35,5.5,0,11.18-.28,16.79-.28,11.45,0,22.59,1.17,31.27,8.3,39.52,32.47,81.44,74.9,132.68,84.45,1.86.09,3.79.12,5.77.12,6.09,0,12.65-.33,19.11-.46,4.54-.09,9.16-.12,13.83-.12,8.42,0,17,.09,25.48.09,4.31,0,8.6,0,12.85-.1a157.38,157.38,0,0,0,17.58-1.31,108.73,108.73,0,0,0,34-10.3c7.65-3.73,15.34-7.3,22.74-11.4a311.61,311.61,0,0,0,42-27.93c7.53-5.94,15.08-11.89,21.69-18.79,44.19-46.08,109.58-51.56,166.82-73.52,18.91-7.26,37.67-24.89,30.1-44.12-9.74-24.71-33-33.37-49-53.11-18.35-17.46-29.07-39.62-37.12-63.15-2.65-7.8-5.07-15.73-7.21-23.73-2.46-9.21-5.53-19.34-6.48-28.7-5.33-52.07-3.87-112.43-48.69-150.28-6-5-12.05-10-18.48-14.52-28.1-19.64-46.75-47.11-73-69.66-19.32-16.61-40.52-22.83-62.21-22.83Z"/><path d="M684.87,363c21.63,0,40,6.66,56.1,20.37,10.05,8.55,19,18,27.71,27.17,11.88,12.53,24.16,25.48,39.07,35.82,5.9,4.09,11.56,8.71,16.79,13.08,35.15,29.42,39.18,73.48,43.08,116.08.58,6.37,1.19,12.95,1.88,19.26.8,7.24,2.93,14.85,5,22.21.38,1.34.75,2.66,1.1,4,1.94,7.06,4.19,14.32,6.69,21.6,9.08,26.09,19.56,43.92,34,57.8,5.41,7.07,11.77,12.67,17.93,18.09,9.93,8.73,19.32,17,24.26,30.62,3.51,9.69-.85,18-5.12,23.26-5.3,6.52-13.59,12.28-22.76,15.79-14.93,5.72-30.74,10.3-46,14.72-37.93,11-77.16,22.33-106,52.13-6,6.19-13,11.62-19.67,16.87A284.85,284.85,0,0,1,720.73,897c-5.29,2.9-10.86,5.57-16.24,8.15l-4.41,2.12a98.26,98.26,0,0,1-30.59,9.22,143.94,143.94,0,0,1-15.87,1.18c-3.75.07-7.78.1-12.67.1-3.56,0-7.13,0-10.69,0s-7.09,0-10.61,0c-5.24,0-9.51,0-13.44.12-2.28,0-4.6.12-6.84.19-3.7.12-7.19.23-10.59.23-1.86,0-3.51,0-5-.1C544,911,510.6,883.36,478.29,856.61c-6.14-5.08-11.93-9.88-17.81-14.57-8.7-6.94-20-7.9-30.91-7.9-2.18,0-4.4,0-6.54.07s-4.29.07-6.41.07c-3.78,0-6.78-.12-9.46-.38L405,833.7c-6.1-.59-12.41-1.19-18.33-2.36-10.83-2.13-19.5-5.43-26.51-10.11-5.88-5-9.9-12.13-12.3-21.65-4.87-19.31-15.6-35.42-26-51-6.3-9.45-12.81-19.23-18-29.7-10.9-21.86,8.83-32.52,29.71-43.81,9.92-5.36,20.18-10.91,26.56-17.72a14.09,14.09,0,0,0,3.81-11.91,14.54,14.54,0,0,0-7.06-10.4c-15.42-8.83-24.92-22.17-28.22-39.65-6.24-33,11.17-72.9,31.19-97.78a108.41,108.41,0,0,1,13.4-14.15c10.09-8.75,26.29-19.17,46.13-19.17a57.45,57.45,0,0,1,10.29.94,135.52,135.52,0,0,1,16,4.29c5.51,1.73,11.43,4.12,17.7,6.65,14,5.62,28.39,11.43,41.32,11.43,9.63,0,17.09-3.24,22.81-9.92A103.16,103.16,0,0,0,538.81,461c3.24-5.74,6.22-11.87,9.11-17.8,10-20.45,20.24-41.6,43.37-52.26,31.89-14.7,63-27.89,93.57-27.89m0-1c-31.93,0-65,14.62-94,28-30.26,13.95-38.6,45.09-52.93,70.47A103.42,103.42,0,0,1,526.73,477c-6,7-13.61,9.57-22.05,9.57-18.54,0-41-12.46-58.72-18a136.59,136.59,0,0,0-16.1-4.32,58.18,58.18,0,0,0-10.48-1c-17.69,0-33.74,8.12-46.78,19.42A110.26,110.26,0,0,0,359.07,497c-32.2,40-52.52,110.41-2.68,138.92a13.33,13.33,0,0,1,3,20.76c-19.16,20.48-73.27,28.89-56.44,62.66,13.89,27.88,36.18,49.75,43.93,80.5,2.5,9.92,6.71,17.11,12.66,22.2,7.79,5.21,17,8.35,26.93,10.29,6.65,1.31,13.6,1.9,20.57,2.58,3.09.3,6.29.39,9.55.39,4.26,0,8.63-.15,13-.15,11,0,21.86.95,30.29,7.68,37,29.52,76.21,67.82,123.78,76.33,1.66.08,3.39.11,5.15.11,5.57,0,11.56-.31,17.46-.43,4.41-.09,8.89-.12,13.42-.12,7,0,14.19.07,21.3.07,4.25,0,8.5,0,12.69-.1a144.31,144.31,0,0,0,16-1.19,99.7,99.7,0,0,0,30.89-9.31c7-3.37,14-6.59,20.69-10.29a285,285,0,0,0,38.26-25.21c6.86-5.36,13.74-10.74,19.77-17C819.55,814.14,878.93,809,931,789.09c17.5-6.71,34.82-22.77,28.46-40.32C951.24,726.2,931,718,917,699.73c-16.59-15.93-26.36-36.09-33.8-57.46-2.44-7.08-4.68-14.27-6.67-21.54-2.29-8.35-5.13-17.53-6.07-26-5.21-47.13-4.38-101.74-45.32-136-5.45-4.56-11-9.07-16.86-13.14-25.61-17.77-42.74-42.55-66.7-62.93-17.64-15-37-20.61-56.75-20.61Z"/><path d="M676.69,393.21c19.52,0,36.09,5.94,50.65,18.16,9.1,7.64,17.25,16.1,25.13,24.28,10.76,11.17,21.89,22.72,35.34,32,5.34,3.68,10.45,7.8,15.17,11.7,31.82,26.34,35.84,65.79,39.73,103.94.58,5.66,1.17,11.52,1.85,17.13.78,6.48,2.75,13.29,4.65,19.87.35,1.22.7,2.43,1,3.62,1.85,6.53,3.92,13.06,6.15,19.4,8.26,23.43,17.71,39.5,30.66,52.09,4.58,6.49,10,11.66,15.21,16.66,8.41,8,16.36,15.64,20.36,28,4.76,14.76-9.59,28.92-26.23,35.29-13.46,5.15-27.7,9.28-41.47,13.27-34.11,9.88-69.39,20.1-95.49,46.67-5.42,5.52-11.69,10.36-17.75,15a258.23,258.23,0,0,1-34.36,22.41c-4.76,2.59-9.77,5-14.62,7.27l-4,1.89a89.28,89.28,0,0,1-27.51,8.23,130.88,130.88,0,0,1-14.27,1.07c-3.66.07-7.68.1-12.65.1l-8.45,0-8.39,0c-5.21,0-9.4,0-13.16.12-2,0-4.13.11-6.14.18-3.37.11-6.55.21-9.65.21-1.63,0-3.08,0-4.43-.09-36.87-6.29-68.08-31.2-98.27-55.3-5.55-4.43-10.79-8.61-16.1-12.7-8.71-6.72-19.83-7.28-30.49-7.28l-4,0-4,0a104.82,104.82,0,0,1-10.69-.43l-1.88-.2c-5.64-.58-11.47-1.18-16.95-2.29-9.93-2-17.92-5-24.41-9.29-5.14-4.57-8.63-10.94-10.68-19.45-4.18-17.37-13.54-31.9-22.59-45.94-5.48-8.51-11.15-17.3-15.67-26.71-9.45-19.53,8.26-29.15,27-39.33,8.92-4.84,18.15-9.85,23.94-16a13,13,0,0,0-2.63-20.17c-13.41-7.9-21.61-19.75-24.37-35.22C347,571.73,363,536,381.23,513.71a98.25,98.25,0,0,1,12.14-12.65c13.24-11.32,27.82-17.31,42.17-17.31a53,53,0,0,1,9,.78,124.94,124.94,0,0,1,14.51,3.74c5,1.53,10.44,3.63,16.17,5.87,12.58,4.91,25.59,10,37.29,10,8.85,0,15.72-2.92,21-8.92A94.82,94.82,0,0,0,544,480.29c3-5.1,5.78-10.55,8.47-15.81,9.3-18.22,18.92-37.05,39.91-46.56,28.77-13,56.86-24.71,84.27-24.71m0-1c-28.74,0-58.52,13-84.69,24.8-27.47,12.43-35.51,40.13-48.83,62.77a94.92,94.92,0,0,1-10.36,14.75c-5.53,6.27-12.54,8.58-20.27,8.58-16.83,0-37.11-10.94-53.17-15.8a125.92,125.92,0,0,0-14.63-3.77,53.78,53.78,0,0,0-9.21-.8c-16.17,0-30.86,7.33-42.82,17.55a99.88,99.88,0,0,0-12.26,12.78c-29.28,35.82-48,98.65-4.28,124.39a12,12,0,0,1,2.41,18.63c-17.36,18.43-65.78,26.15-51.12,56.44,12,25.05,31.55,44.81,38.2,72.45,2.14,8.91,5.82,15.39,11,20,7.21,4.74,15.72,7.65,24.82,9.47,6.12,1.24,12.52,1.83,18.92,2.5a105,105,0,0,0,10.8.44c2.64,0,5.31,0,8,0,10.81,0,21.54.64,29.88,7.07,34.45,26.58,71,60.73,114.88,68.2,1.47.07,3,.09,4.54.09,5,0,10.46-.28,15.81-.39,4.31-.09,8.71-.12,13.14-.12,5.58,0,11.22,0,16.84,0,4.25,0,8.49,0,12.67-.1a131.31,131.31,0,0,0,14.38-1.08,90.68,90.68,0,0,0,27.81-8.32c6.27-3,12.57-5.88,18.64-9.18a258.47,258.47,0,0,0,34.5-22.5c6.19-4.78,12.39-9.58,17.85-15.13,36.42-37.07,89.79-41.79,136.61-59.71,16.08-6.15,32-20.65,26.83-36.53-6.63-20.42-24-28.2-35.76-45C873,680.34,864.13,662.2,857.35,643c-2.24-6.35-4.29-12.82-6.13-19.34-2.12-7.49-4.73-15.72-5.65-23.34-5.1-42.2-4.88-91-41.94-121.73-4.93-4.08-9.94-8.11-15.24-11.76-23.12-15.9-38.72-38-60.4-56.2-16-13.39-33.42-18.4-51.29-18.4Z"/><path d="M668.51,423.38c17.41,0,32.19,5.22,45.2,16,8.16,6.73,15.48,14.19,22.57,21.4,9.65,9.82,19.62,20,31.61,28.12,4.79,3.26,9.34,6.89,13.55,10.33,28.49,23.27,32.5,58.11,36.38,91.81.57,5,1.16,10.08,1.82,15,.77,5.73,2.56,11.73,4.3,17.53.33,1.11.66,2.2,1,3.28,1.7,5.82,3.59,11.61,5.61,17.2,7.51,20.83,15.94,35.14,27.31,46.38,3.74,5.9,8.18,10.62,12.48,15.2,6.91,7.35,13.44,14.3,16.47,25.34,3.65,13.15-9.61,25.82-24.59,31.54-12,4.58-24.67,8.26-36.93,11.82-30.29,8.79-61.61,17.88-84.93,41.21a154,154,0,0,1-15.83,13.22,231.69,231.69,0,0,1-30.6,19.69c-4.24,2.28-8.69,4.37-13,6.39l-3.54,1.67a80.32,80.32,0,0,1-24.43,7.24,117.83,117.83,0,0,1-12.67,1c-4.68.1-9.37.11-12.93.11H615.56c-3.66,0-8.46,0-13.19.12-1.81,0-3.63.1-5.44.16-3,.1-5.91.2-8.7.2-1.4,0-2.65,0-3.82-.07-34-5.46-63.07-27.63-91.16-49.07-4.71-3.6-9.59-7.32-14.32-10.82-8.91-6.59-20.41-6.64-31.54-6.69a126.18,126.18,0,0,1-13.45-.52l-1.62-.18c-5.18-.58-10.54-1.17-15.57-2.22-9-1.87-16.33-4.64-22.3-8.47-4.4-4.1-7.36-9.74-9.06-17.24-3.5-15.51-11.53-28.5-19.28-41.07-4.63-7.51-9.42-15.27-13.24-23.52-8-17.23,7.73-25.79,24.34-34.86,7.92-4.32,16.1-8.79,21.29-14.25a11.74,11.74,0,0,0,3.27-9.75,11.51,11.51,0,0,0-5.28-8.28c-11.4-7-18.3-17.33-20.52-30.79-4.34-26.31,10.25-57.92,26.63-77.58a88.14,88.14,0,0,1,10.88-11.15c12-10.11,25.24-15.45,38.23-15.45a48.65,48.65,0,0,1,7.78.63,114.44,114.44,0,0,1,13,3.18c4.57,1.32,9.46,3.15,14.64,5.09,11.2,4.19,22.78,8.53,33.25,8.53,8.07,0,14.36-2.59,19.23-7.91a86.66,86.66,0,0,0,9.62-13.11c2.76-4.47,5.34-9.23,7.83-13.83,8.65-16,17.59-32.51,36.45-40.86,20.54-9.09,48.66-21.54,75-21.54m0-1c-25.56,0-52,11.29-75.38,21.63-24.67,10.92-32.41,35.17-44.72,55.07a86.61,86.61,0,0,1-9.5,13c-5.08,5.55-11.47,7.59-18.49,7.59-15.11,0-33.2-9.42-47.61-13.58a115.33,115.33,0,0,0-13.15-3.21,49.43,49.43,0,0,0-7.94-.64c-14.64,0-28,6.53-38.87,15.69a89.55,89.55,0,0,0-11,11.27C375.48,560.79,358.44,616.06,396,639a10.66,10.66,0,0,1,1.8,16.49c-15.56,16.39-58.22,23.37-45.81,50.21,10.26,22.2,26.92,39.86,32.46,64.39,1.79,7.9,4.93,13.67,9.42,17.82,6.63,4.28,14.41,6.94,22.71,8.65,5.59,1.16,11.43,1.76,17.28,2.42,14.68,1.65,32.24-2.07,44.51,7,31.92,23.63,65.73,53.65,106,60.08,1.27.06,2.58.08,3.92.08,4.51,0,9.37-.25,14.16-.36,4.32-.09,8.72-.12,13.17-.12l11.77,0c4.34,0,8.68,0,13-.11a118.31,118.31,0,0,0,12.77-1,81.7,81.7,0,0,0,24.73-7.33c5.58-2.64,11.19-5.18,16.59-8.08a232,232,0,0,0,30.73-19.78A154.13,154.13,0,0,0,741,816.18c32.53-32.56,79.9-36.91,121.51-52.8,14.66-5.6,29.13-18.54,25.19-32.74-5-18.29-19.47-25.61-29.13-40.9-13.06-12.86-21-29-27.16-46.09-2-5.63-3.9-11.36-5.59-17.14-1.94-6.64-4.34-13.91-5.24-20.66-5-37.27-5.39-80.35-38.56-107.45-4.41-3.6-8.89-7.16-13.62-10.38-20.62-14-34.7-33.45-54.1-49.46-14.28-11.78-29.88-16.18-45.84-16.18Z"/><path d="M660.37,453.57c15.28,0,28.27,4.49,39.71,13.73a266.17,266.17,0,0,1,20,18.52c8.53,8.46,17.35,17.21,27.87,24.26,4.24,2.84,8.24,6,11.93,8.95,25.16,20.21,29.17,50.45,33,79.69.56,4.24,1.14,8.63,1.78,12.85a104.92,104.92,0,0,0,3.94,15.18c.31,1,.62,2,.91,2.94,1.56,5.11,3.27,10.15,5.07,15,6.76,18.24,14.16,30.78,24,40.65a91.17,91.17,0,0,0,9.72,13.7c5.41,6.68,10.52,13,12.62,22.74,2.49,11.56-9.65,22.74-22.94,27.8-10.51,4-21.64,7.24-32.4,10.37-26.46,7.69-53.83,15.65-74.35,35.74a136.21,136.21,0,0,1-13.91,11.39,205.25,205.25,0,0,1-26.84,17c-3.71,2-7.61,3.76-11.39,5.51L666,831a71.41,71.41,0,0,1-21.35,6.25,104.81,104.81,0,0,1-11.07.84c-4.89.11-9.8.12-14.41.12h-4.34c-4.63,0-9.55,0-14.4.12-1.58,0-3.16.09-4.73.14-2.71.09-5.27.18-7.76.18-1.17,0-2.22,0-3.21-.06-31.21-4.62-58.13-24.07-84.16-42.88-4.09-3-8.32-6-12.43-8.9-8.17-5.75-18.54-5.93-28.57-6.11a119.32,119.32,0,0,1-12.25-.63l-1.35-.16c-4.73-.57-9.61-1.17-14.21-2.16-8.15-1.74-14.75-4.24-20.18-7.65-3.66-3.62-6.1-8.54-7.44-15-2.82-13.61-9.48-25-15.92-36.1a199.32,199.32,0,0,1-10.86-20.44c-6.51-14.92,7.17-22.43,21.65-30.39,6.91-3.8,14.06-7.72,18.65-12.51a10.58,10.58,0,0,0,3-8.67,10,10,0,0,0-4.39-7.23c-9.39-6-15-14.92-16.69-26.36-3.37-23,9.81-50.44,24.37-67.48a78.14,78.14,0,0,1,9.61-9.65c10.79-8.89,22.67-13.59,34.34-13.59a44.52,44.52,0,0,1,6.46.47A104.8,104.8,0,0,1,486,525.78c4.09,1.1,8.47,2.66,13.11,4.3,9.81,3.48,20,7.08,29.19,7.08,7.29,0,13-2.26,17.46-6.91a78.75,78.75,0,0,0,8.76-11.32c2.52-3.82,4.88-7.88,7.17-11.81,8-13.75,16.29-28,33-35.2,19.11-8.18,42.9-18.36,65.71-18.36m0-1c-22.38,0-45.54,9.64-66.11,18.44-21.87,9.45-29.3,30.21-40.62,47.37A78.56,78.56,0,0,1,545,529.56c-4.63,4.84-10.41,6.6-16.74,6.6-13.39,0-29.27-7.91-42-11.35a106.05,106.05,0,0,0-11.68-2.65,45.32,45.32,0,0,0-6.61-.49c-13.14,0-25.15,5.72-35,13.82a79.31,79.31,0,0,0-9.74,9.77c-23.43,27.42-38.83,75.14-7.46,95.33A9.35,9.35,0,0,1,417,655c-13.76,14.34-50.7,20.62-40.5,44,8.45,19.36,22.29,34.91,26.72,56.34,1.43,6.89,4,11.95,7.8,15.62a63.13,63.13,0,0,0,20.6,7.84c5.07,1.09,10.35,1.69,15.64,2.34,13.3,1.63,29.09-1.37,40.36,6.57,29.38,20.68,60.49,46.57,97.07,52,1.07,0,2.17.06,3.3.06,4,0,8.28-.23,12.51-.32,4.7-.11,9.52-.12,14.37-.12h4.34c4.83,0,9.67,0,14.43-.12a105.36,105.36,0,0,0,11.17-.85,72.76,72.76,0,0,0,21.64-6.34c4.89-2.28,9.8-4.47,14.54-7a205.64,205.64,0,0,0,27-17.06,136.42,136.42,0,0,0,14-11.47c28.64-28.05,70-32,106.41-45.89,13.25-5,26.26-16.42,23.56-28.94-3.48-16.15-15-23-22.51-36.83-11.29-11.33-18.29-25.45-23.84-40.4-1.82-4.91-3.5-9.91-5-14.95-1.77-5.78-3.94-12.11-4.82-18-4.87-32.34-5.9-69.66-35.18-93.17-3.88-3.12-7.84-6.21-12-9-18.13-12.15-30.69-28.9-47.81-42.73-12.58-10.16-26.31-14-40.34-14Z"/><path d="M652.13,483.73c13.2,0,24.43,3.77,34.32,11.54,6.28,4.93,12,10.38,17.46,15.65,7.41,7.1,15.06,14.44,24.12,20.4,3.68,2.42,7.13,5.07,10.31,7.57,21.85,17.15,25.85,42.8,29.71,67.6.55,3.53,1.12,7.17,1.73,10.68A92.36,92.36,0,0,0,773.37,630c.29.88.58,1.75.86,2.6,1.42,4.39,2.95,8.7,4.52,12.8,4.06,10.54,10.06,24,20.61,34.92a83.22,83.22,0,0,0,6.93,12.11c3.93,6,7.64,11.7,8.8,20.22,1.43,10.45-10,19.8-21.29,24.08-9,3.44-18.62,6.23-27.88,8.92-22.63,6.6-46,13.41-63.76,30.27a118.54,118.54,0,0,1-12,9.56,179,179,0,0,1-23.08,14.26c-3.19,1.65-6.54,3.16-9.78,4.63l-2.67,1.21a62.57,62.57,0,0,1-18.27,5.27,91.93,91.93,0,0,1-9.47.73c-4.72.11-9.61.12-14.33.13s-9.47,0-14.06.13l-4,.13c-2.38.08-4.63.16-6.82.16-.94,0-1.79,0-2.6,0-28.47-3.78-53.31-20.54-77.34-36.74-3.41-2.3-6.94-4.68-10.37-6.94-7.42-4.9-16.65-5.22-25.57-5.53-3.87-.14-7.53-.26-11.07-.74l-1.05-.14c-4.28-.57-8.7-1.17-12.86-2.1a59,59,0,0,1-18.07-6.83c-2.92-3.14-4.83-7.34-5.83-12.83-2.13-11.7-7.42-21.57-12.54-31.12a174.28,174.28,0,0,1-8.5-17.36c-5.06-12.61,6.61-19.08,19-25.93,5.91-3.28,12-6.66,16-10.77a9.44,9.44,0,0,0,2.76-7.58,8.53,8.53,0,0,0-3.5-6.17c-7.4-5.11-11.74-12.5-12.9-21.94-2.39-19.62,9.39-43,22.13-57.37a67.34,67.34,0,0,1,8.35-8.15c9.59-7.68,20.11-11.74,30.44-11.74a40.18,40.18,0,0,1,5.17.34,94.3,94.3,0,0,1,10.09,2.08c3.63.89,7.49,2.17,11.58,3.51,8.41,2.77,17.12,5.64,25.1,5.64,6.53,0,11.66-1.93,15.7-5.9a71.28,71.28,0,0,0,7.91-9.52c2.28-3.19,4.44-6.57,6.52-9.84,7.35-11.53,15-23.45,29.57-29.5,16.4-6.77,36.8-15.2,56.36-15.2m0-1c-19.18,0-39,8-56.74,15.28-19.09,7.9-26.2,25.24-36.52,39.67a70.93,70.93,0,0,1-7.8,9.39c-4.19,4.12-9.36,5.62-15,5.62-11.66,0-25.33-6.39-36.44-9.13a95,95,0,0,0-10.2-2.1,41,41,0,0,0-5.3-.34c-11.62,0-22.29,4.94-31.06,12a69.19,69.19,0,0,0-8.47,8.27c-20.51,23.22-34.27,63.38-9.05,80.8,3.48,2.4,4.52,8.19.59,12.23-12,12.29-43.17,17.86-35.19,37.77,6.63,16.52,17.66,30,21,48.29,1.07,5.88,3.15,10.23,6.18,13.43a60.24,60.24,0,0,0,18.49,7c4.54,1,9.26,1.62,14,2.25,11.92,1.6,25.94-.67,36.22,6.11C523.66,787,552.07,808.74,585,813.1c.87,0,1.77,0,2.68,0,3.46,0,7.19-.2,10.87-.29,9.22-.22,19,0,28.39-.26a92.53,92.53,0,0,0,9.57-.74,63.88,63.88,0,0,0,18.56-5.35c4.2-1.92,8.42-3.76,12.49-5.86a179.44,179.44,0,0,0,23.21-14.34,118.82,118.82,0,0,0,12.09-9.65c24.76-23.55,60.11-27.14,91.3-39,11.83-4.49,23.4-14.31,21.92-25.15-1.91-14-10.48-20.44-15.88-32.76-9.53-9.79-15.59-21.91-20.52-34.71-1.61-4.19-3.11-8.45-4.51-12.75-1.6-4.92-3.54-10.3-4.41-15.3-4.75-27.4-6.41-59-31.81-78.89-3.36-2.64-6.78-5.25-10.38-7.62-15.64-10.28-26.67-24.35-41.51-36-10.92-8.56-22.8-11.75-34.94-11.75Z"/><path d="M643.88,513.88c11.12,0,20.6,3.06,29,9.36,5.35,4,10.22,8.48,14.93,12.78,6.28,5.74,12.77,11.67,20.35,16.52,3.14,2,6.16,4.26,8.69,6.2,18.55,14.1,22.54,35.17,26.4,55.55.53,2.8,1.08,5.69,1.65,8.47a80.17,80.17,0,0,0,3.22,10.47c.27.77.55,1.53.81,2.28,1.29,3.69,2.63,7.25,4,10.6,3.56,8.79,8.72,20,17.23,29.16a81.53,81.53,0,0,0,4.13,10.34c2.47,5.41,4.8,10.51,5,17.87.25,8.81-10,16.74-19.64,20.39-7.59,2.87-15.62,5.22-23.38,7.49-18.79,5.49-38.22,11.17-53.14,24.78A101.06,101.06,0,0,1,673,763.89a153,153,0,0,1-19.33,11.55c-2.66,1.33-5.46,2.56-8.16,3.75l-2.23,1a53.85,53.85,0,0,1-15.2,4.28c-2.64.34-5.29.55-7.87.62-4,.11-8.11.13-12.09.15-3.82,0-7.77,0-11.55.14l-3.32.11c-2.06.07-4,.14-5.88.14-.71,0-1.36,0-2,0-25.83-2.94-48.7-17-70.82-30.67-2.69-1.66-5.36-3.3-8-4.91-6.66-4-14.73-4.5-22.54-4.94-3.31-.19-6.73-.38-9.91-.86l-.72-.11c-3.84-.57-7.81-1.17-11.56-2a56.82,56.82,0,0,1-16-6,21,21,0,0,1-4.22-10.61c-1.43-9.8-5.35-18.11-9.15-26.14A150.65,150.65,0,0,1,426.39,685c-3.62-10.31,6-15.74,16.28-21.49,4.9-2.75,10-5.6,13.36-9a8.33,8.33,0,0,0,2.51-6.47,7,7,0,0,0-2.6-5.12c-5.44-4.18-8.52-10.08-9.15-17.54-1.38-16.28,9-35.46,19.92-47.26a59.39,59.39,0,0,1,7.08-6.66c8.4-6.48,17.6-9.91,26.59-9.91a36,36,0,0,1,3.83.21,83,83,0,0,1,8.62,1.52c3.16.68,6.52,1.67,10.07,2.72,7,2.07,14.24,4.21,20.94,4.21,5.78,0,10.35-1.6,14-4.89a64.6,64.6,0,0,0,7.06-7.71c2-2.55,4-5.25,5.86-7.86,6.71-9.31,13.64-18.94,26.14-23.81,13.67-5.37,30.69-12.05,47-12.05m0-1c-16,0-32.49,6.28-47.36,12.12-16.31,6.36-23.09,20.28-32.41,32a64.09,64.09,0,0,1-6.95,7.6c-3.76,3.41-8.34,4.64-13.31,4.64-9.92,0-21.36-4.88-30.8-6.91a84.46,84.46,0,0,0-8.72-1.54,36.85,36.85,0,0,0-3.94-.21c-10.12,0-19.47,4.16-27.2,10.12a59.27,59.27,0,0,0-7.21,6.77c-17.59,19-29.69,51.63-10.64,66.27,2.63,2,3.29,6.76,0,10.09-10.16,10.25-35.65,15.11-29.87,31.54,4.81,13.69,13,25,15.25,40.23.71,4.87,2.26,8.51,4.55,11.24a58,58,0,0,0,16.38,6.2c4,.94,8.18,1.54,12.35,2.17,10.54,1.58,22.8,0,32.07,5.66,24.31,14.76,50,32.41,79.27,35.72.67,0,1.35,0,2.05,0,2.94,0,6.11-.17,9.23-.25,7.69-.2,15.81-.08,23.64-.29a79.86,79.86,0,0,0,8-.62,55.14,55.14,0,0,0,15.48-4.36c3.51-1.56,7-3,10.44-4.75a153.54,153.54,0,0,0,19.45-11.63,101.45,101.45,0,0,0,10.17-7.82c20.87-19,50.22-22.24,76.2-32.08,10.42-3.94,20.55-12.21,20.29-21.36-.34-11.91-6-17.86-9.25-28.7-7.76-8.26-12.89-18.37-17.19-29-1.4-3.47-2.72-7-4-10.55a103.53,103.53,0,0,1-4-12.62c-4.62-22.47-6.91-48.27-28.43-64.62-2.84-2.17-5.73-4.3-8.76-6.24-13.14-8.41-22.65-19.8-35.22-29.26a47.63,47.63,0,0,0-29.56-9.56Z"/><path d="M635.65,544.05a39.46,39.46,0,0,1,23.58,7.16c4.43,3.13,8.5,6.59,12.44,9.94a134.08,134.08,0,0,0,16.54,12.63c2.59,1.59,5,3.33,7.08,4.82,15.28,11.07,19.28,27.59,23.14,43.57.49,2,1,4.16,1.53,6.2a68.78,68.78,0,0,0,2.84,8.1c.26.66.52,1.32.77,2,1.18,3,2.3,5.78,3.44,8.39,3.25,7.48,7.43,16.1,13.84,23.37.38,3,.91,5.56,1.42,8.05,1.06,5.16,2,9.61,1.17,16-.91,7.23-9.71,13.62-18,16.75-6.15,2.32-12.65,4.23-18.93,6.07C691.54,721.48,676.1,726,664,736.37a84,84,0,0,1-8.16,5.91,127.56,127.56,0,0,1-15.57,8.84c-2.14,1-4.39,2-6.56,2.88l-1.79.75a45.37,45.37,0,0,1-12.13,3.3c-2.1.27-4.21.44-6.27.5-3.25.1-6.62.14-9.88.17-3,0-6.06.06-9,.15L592,759c-1.74.07-3.38.13-5,.13l-1.35,0c-23.41-2.09-44.5-13.6-64.9-24.74l-5-2.75c-5.87-3.18-12.77-3.77-19.44-4.33-2.93-.25-6-.51-8.79-1l-.31-.05c-3.43-.58-7-1.19-10.33-2A55.9,55.9,0,0,1,463.08,719a17.73,17.73,0,0,1-2.63-8.38c-.72-7.89-3.26-14.62-5.71-21.13-1.36-3.61-2.77-7.35-3.83-11.22-2.21-8,5.47-12.42,13.6-17.07,3.89-2.23,7.91-4.53,10.7-7.27a7.3,7.3,0,0,0,2.29-5.34,5.63,5.63,0,0,0-1.68-4.07c-3.52-3.24-5.37-7.68-5.49-13.18-.26-11.21,6.88-26.12,17.76-37.12a49.47,49.47,0,0,1,5.82-5.16c7.25-5.29,15.18-8.09,22.93-8.09.77,0,1.56,0,2.33.08,2.29.17,4.69.55,7.15,1,2.7.46,5.55,1.16,8.57,1.91,5.55,1.37,11.28,2.79,16.67,2.79,5.06,0,9.09-1.27,12.33-3.88a58.74,58.74,0,0,0,6.2-5.91c1.77-1.9,3.47-3.89,5.12-5.82,6.36-7.43,12.37-14.45,22.79-18.2,11-4,24.74-8.89,37.66-8.89m0-1c-12.78,0-26,4.63-38,9-13.52,4.86-20,15.32-28.31,24.28a58.87,58.87,0,0,1-6.09,5.81c-3.36,2.71-7.39,3.66-11.71,3.66-8.14,0-17.32-3.38-25.07-4.69-2.47-.42-4.89-.81-7.25-1Q518,580,516.82,580c-8.68,0-16.77,3.36-23.51,8.28a49.74,49.74,0,0,0-5.94,5.27c-14.67,14.82-25.11,39.88-12.23,51.74,1.77,1.63,2.06,5.33-.62,8-8.36,8.2-28.13,12.37-24.56,25.32,3,10.87,8.4,20.05,9.51,32.18a18.49,18.49,0,0,0,2.93,9,57,57,0,0,0,14.27,5.38c3.48.87,7.09,1.47,10.71,2.09,9.16,1.56,19.65.73,27.93,5.21,21.78,11.8,44.77,25.32,70.37,27.6l1.41,0c2.42,0,5-.15,7.61-.22,6.15-.18,12.63-.12,18.89-.32q3.2-.1,6.37-.51a46.63,46.63,0,0,0,12.39-3.37c2.82-1.19,5.65-2.34,8.39-3.65a128.15,128.15,0,0,0,15.69-8.91,84.52,84.52,0,0,0,8.25-6c17-14.54,40.33-17.35,61.1-25.17,9-3.39,17.72-10.11,18.66-17.56,1.24-9.8-1.49-15.27-2.63-24.63-6-6.73-10.18-14.84-13.87-23.33-1.19-2.75-2.33-5.54-3.42-8.36a91.77,91.77,0,0,1-3.58-9.94c-4.49-17.53-7.42-37.57-25.05-50.34-2.32-1.69-4.67-3.35-7.14-4.86-10.65-6.54-18.62-15.25-28.92-22.53a40.64,40.64,0,0,0-24.15-7.35Z"/><path d="M627.3,574.2a33.23,33.23,0,0,1,18.33,5c3.56,2.25,6.86,4.74,10.05,7.15A121.25,121.25,0,0,0,668.29,595c1.95,1.12,3.85,2.37,5.46,3.45,12.1,8.13,16.13,20.18,20,31.83.42,1.25.84,2.5,1.26,3.73a59.57,59.57,0,0,0,2.42,5.68l.78,1.68c1.11,2.43,2,4.4,2.89,6.18,2.88,5.95,6.13,12.17,10.41,17.51-.15,1.23-.28,2.38-.41,3.49-.65,5.69-1.17,10.18-3.48,16.42-1.83,5-8.28,10.13-16.43,13.18-4.74,1.77-9.75,3.25-14.59,4.69-11,3.27-22.44,6.64-31.67,13.72a68,68,0,0,1-6.24,4.09,103.44,103.44,0,0,1-11.82,6.13c-1.62.71-3.32,1.37-5,2l-1.33.52a37.48,37.48,0,0,1-9.07,2.32c-1.57.2-3.14.33-4.68.39-2.54.1-5.17.15-7.71.2-2.12,0-4.31.08-6.42.15l-1.89.07c-1.43.06-2.79.11-4.09.11h-.68c-21.51-1.22-41.33-10.32-60.49-19.11l-.61-.28c-5-2.31-10.72-3-16.21-3.68-2.6-.32-5.28-.65-7.8-1.15-2.81-.56-6-1.18-9-2A57.79,57.79,0,0,1,480.29,702a15.39,15.39,0,0,1-1.08-6.12,72.55,72.55,0,0,0-2.2-16.07c-.58-2.65-1.18-5.39-1.58-8.2-.84-5.76,4.88-9.15,10.93-12.73a47,47,0,0,0,8-5.49c2.42-2.27,2.59-5.48,1.35-7.15-6.23-8.43,2.05-25.36,13.69-35.87A40.21,40.21,0,0,1,514,606.7a35.39,35.39,0,0,1,19.52-6.33h.6c1.84,0,3.74.22,5.69.42,2.26.23,4.61.64,7.11,1.08A71.73,71.73,0,0,0,559,603.3a19.11,19.11,0,0,0,10.92-2.87,59.68,59.68,0,0,0,5.33-4.09c1.46-1.24,2.89-2.52,4.28-3.76,5.75-5.15,11.17-10,19.58-12.62s18.57-5.76,28.22-5.76m0-1c-9.54,0-19.37,3-28.52,5.8-10.74,3.33-16.85,10.36-24.21,16.58a58.09,58.09,0,0,1-5.24,4A18.22,18.22,0,0,1,559,602.3c-6.27,0-13.12-1.88-19.08-2.5-2-.2-3.89-.39-5.77-.43h-.62a36.42,36.42,0,0,0-20.08,6.49,41.09,41.09,0,0,0-4.68,3.77c-11.75,10.61-20.51,28.16-13.82,37.21.92,1.25.83,3.9-1.23,5.83-6.57,6.15-20.62,9.66-19.25,19.09,1.17,8.06,3.78,15.08,3.77,24.12a16,16,0,0,0,1.31,6.85,58.62,58.62,0,0,0,12.16,4.56c3,.79,6,1.4,9.07,2,7.79,1.54,16.51,1.42,23.78,4.76,19.24,8.83,39.54,18.24,61.47,19.48h.74c1.91,0,4-.12,6-.19,4.62-.16,9.45-.16,14.14-.35q2.4-.1,4.76-.4a38.72,38.72,0,0,0,9.31-2.38c2.13-.83,4.26-1.63,6.34-2.54a104.1,104.1,0,0,0,11.93-6.19,68.66,68.66,0,0,0,6.33-4.16c13.1-10,30.45-12.45,46-18.26,7.58-2.84,14.9-8,17-13.77,2.85-7.71,3-12.69,4-20.56-4.23-5.19-7.48-11.3-10.55-17.65-1-2-1.94-4.09-2.88-6.16-1.07-2.35-2.34-4.87-3.16-7.26-4.34-12.6-8-26.85-21.67-36.06-1.79-1.2-3.62-2.4-5.52-3.49-8.15-4.67-14.59-10.71-22.62-15.8a34.38,34.38,0,0,0-18.87-5.16Z"/><path d="M618.58,604.31a29.6,29.6,0,0,1,13.5,2.9c2.85,1.42,5.54,3,8.14,4.52s5.33,3.13,8.19,4.55c1.41.7,2.74,1.44,3.85,2.08,9.25,5.29,13.43,13.07,17.48,20.59l.43.8c.56,1,1.21,2.09,1.84,3.11.32.51.63,1,.93,1.51q1,1.6,1.89,3.2l.44.75,1.56,2.67c1.82,3.13,3.55,6.09,5.38,8.86A79.13,79.13,0,0,1,672,675.64c-3,3.67-8.56,7.29-15,9.67-3.42,1.26-7,2.34-10.51,3.38-7,2.1-14.3,4.28-20.56,8.06-1.42.86-3,1.61-4.33,2.28a83.89,83.89,0,0,1-8.07,3.43c-1.13.41-2.3.79-3.44,1.16l-.82.26a32.31,32.31,0,0,1-6,1.34c-1,.13-2.08.22-3.09.28-1.9.11-3.87.17-5.76.24l-3.61.14-1.13.05c-1.16.06-2.26.11-3.3.11-18.12-.2-35.82-5.55-52.25-11.31a80.16,80.16,0,0,0-12.49-2.91c-2.41-.43-4.9-.87-7.25-1.43-2.77-.66-5.08-1.23-7.37-1.91a68.59,68.59,0,0,1-9.37-3.44,17.16,17.16,0,0,1,.33-3.82c.73-3.85,1.06-7.23,1.37-10.5.17-1.83.35-3.72.6-5.63.47-3.61,4.48-6.15,8.36-8.6a45.72,45.72,0,0,0,5.23-3.64,5.8,5.8,0,0,0,2.18-4.54c-.46-5.58,6.41-15.55,15-21.79a34.53,34.53,0,0,1,3.32-2.2,36.09,36.09,0,0,1,15.05-4.65c.91-.06,1.82-.08,2.79-.1l1.46,0,1.3,0c1.68,0,3.38.08,5.18.17s3.64.18,5.45.18c4.51,0,7.77-.58,10.56-1.87,1.6-.74,3.14-1.56,4.44-2.26l2.9-1.59c5.32-2.94,10.34-5.72,17-7.19,6.3-1.41,12.45-2.67,18.46-2.67m0-1c-6.2,0-12.56,1.33-18.68,2.69-8,1.78-13.71,5.43-20.1,8.88-1.43.77-2.88,1.53-4.39,2.23a24,24,0,0,1-10.14,1.78c-3.55,0-7.2-.35-10.64-.35l-1.33,0c-1.45,0-2.88,0-4.29.13a37,37,0,0,0-15.47,4.78,35.56,35.56,0,0,0-3.42,2.26c-8.83,6.4-15.92,16.57-15.42,22.68a4.82,4.82,0,0,1-1.84,3.7c-4.78,4.09-13.17,7-13.94,12.87-.69,5.29-.82,10.09-2,16.07a17.54,17.54,0,0,0-.31,4.66,68.93,68.93,0,0,0,10.05,3.75c2.43.72,4.92,1.33,7.43,1.92,6.4,1.52,13.36,2.11,19.64,4.31,16.7,5.85,34.3,11.16,52.57,11.36,1.43,0,3-.1,4.48-.16,3.08-.13,6.27-.2,9.38-.38q1.59-.09,3.16-.28a33.11,33.11,0,0,0,6.23-1.39c1.44-.47,2.88-.92,4.29-1.43a84.58,84.58,0,0,0,8.17-3.47c1.5-.74,3-1.47,4.41-2.33C635.7,692,647,690,657.36,686.25c6.16-2.29,12.12-5.93,15.39-10a80.47,80.47,0,0,0,10.62-16.49c-2.47-3.66-4.76-7.76-7.23-12-.77-1.31-1.55-2.64-2.34-4-.9-1.5-1.93-3.06-2.75-4.59-4.14-7.69-8.45-16.16-18.3-21.79-1.27-.73-2.56-1.44-3.9-2.11-5.65-2.8-10.55-6.18-16.33-9.06a30.73,30.73,0,0,0-13.94-3Z"/><path d="M603.11,634C629.6,634,649,644.31,653,654.5a88.88,88.88,0,0,1-30.18,17.95,128,128,0,0,1-36.2,7.08c-3,.17-6,.25-9,.25a175.15,175.15,0,0,1-62.21-11.57c9.17-11.76,22.15-20.57,38.59-26.21,13.53-4.69,29.38-7.39,47.07-8l2,0h0m0-1L601,633c-15.25.53-32,2.71-47.38,8.06s-29.56,13.87-39.86,27.6a175.64,175.64,0,0,0,63.81,12.12q4.55,0,9.08-.26a129.29,129.29,0,0,0,36.48-7.14,89.6,89.6,0,0,0,31-18.6c-3.63-11-24.19-21.8-51.06-21.8Z"/></g></g></svg>