<svg
 xmlns="http://www.w3.org/2000/svg"
 xmlns:xlink="http://www.w3.org/1999/xlink"
 width="350px" height="15px">
<path fill-rule="evenodd"  fill="rgb(181, 99, 73)"
 d="M228.358,7.796 C227.707,7.803 227.175,7.288 227.175,6.650 C227.175,6.013 227.707,5.497 228.358,5.504 L350.000,6.650 L228.358,7.796 ZM219.545,8.092 C219.452,8.478 219.318,8.868 219.122,9.227 C218.744,9.957 218.147,10.550 217.485,10.991 C216.133,11.849 214.606,12.247 213.103,12.497 C210.084,12.981 207.067,13.087 204.152,12.677 C201.251,12.268 198.519,11.441 196.058,10.438 C193.800,9.512 191.749,8.475 189.843,7.527 C189.705,7.590 189.566,7.653 189.431,7.716 C187.371,8.673 185.514,9.638 183.850,10.469 C182.189,11.306 180.749,12.061 179.541,12.643 C177.129,13.818 175.705,14.395 175.705,14.395 C175.692,14.400 175.679,14.401 175.667,14.400 C175.654,14.401 175.642,14.400 175.630,14.395 C175.630,14.395 174.206,13.818 171.794,12.643 C170.586,12.061 169.146,11.306 167.485,10.469 C165.821,9.638 163.965,8.673 161.904,7.716 C161.769,7.653 161.630,7.590 161.493,7.527 C159.586,8.475 157.535,9.512 155.277,10.438 C152.816,11.441 150.085,12.268 147.183,12.677 C144.267,13.087 141.251,12.981 138.232,12.497 C136.730,12.247 135.201,11.849 133.849,10.991 C133.188,10.550 132.591,9.957 132.214,9.227 C132.018,8.868 131.883,8.478 131.789,8.092 C131.729,7.853 131.712,7.717 131.682,7.503 C131.662,7.285 131.650,7.069 131.663,6.865 C131.744,5.191 132.708,3.689 134.010,2.677 C135.332,1.670 136.969,1.180 138.520,0.967 C139.307,0.856 140.072,0.802 140.857,0.787 L141.979,0.772 L143.131,0.796 C144.643,0.854 146.132,1.006 147.583,1.231 C150.485,1.673 153.226,2.440 155.730,3.365 C157.874,4.145 159.836,5.029 161.642,5.942 C163.626,5.024 165.481,4.194 167.157,3.544 C168.892,2.859 170.412,2.280 171.668,1.813 C174.178,0.872 175.635,0.384 175.635,0.384 C175.646,0.380 175.658,0.379 175.669,0.380 C175.679,0.380 175.690,0.381 175.701,0.384 C175.701,0.384 177.157,0.872 179.667,1.813 C180.924,2.280 182.444,2.859 184.179,3.544 C185.855,4.194 187.709,5.024 189.693,5.942 C191.499,5.029 193.461,4.145 195.605,3.365 C198.109,2.440 200.849,1.673 203.753,1.230 C205.203,1.006 206.692,0.854 208.205,0.796 L209.356,0.772 L210.478,0.787 C211.264,0.802 212.028,0.856 212.816,0.967 C214.366,1.180 216.003,1.670 217.325,2.677 C218.627,3.689 219.591,5.191 219.673,6.865 C219.685,7.068 219.674,7.285 219.653,7.503 C219.623,7.717 219.606,7.853 219.545,8.092 ZM155.141,4.949 C152.696,4.097 150.066,3.366 147.299,2.852 C145.915,2.601 144.494,2.417 143.051,2.323 L141.976,2.272 L140.859,2.255 C140.149,2.254 139.408,2.277 138.698,2.350 C137.268,2.501 135.872,2.841 134.710,3.606 C133.576,4.359 132.662,5.575 132.514,6.923 C132.492,7.095 132.492,7.253 132.493,7.410 C132.503,7.568 132.525,7.807 132.553,7.934 C132.614,8.282 132.706,8.616 132.851,8.928 C133.127,9.560 133.596,10.110 134.186,10.525 C135.376,11.359 136.856,11.773 138.316,12.019 C139.053,12.143 139.790,12.204 140.527,12.266 C141.281,12.295 142.014,12.320 142.742,12.305 C144.203,12.256 145.635,12.059 147.015,11.765 C149.783,11.174 152.323,10.154 154.704,9.129 C156.504,8.352 158.219,7.556 159.844,6.790 C158.364,6.148 156.791,5.520 155.141,4.949 ZM183.743,4.514 C182.055,3.725 180.591,3.019 179.391,2.428 C177.191,1.353 175.876,0.659 175.668,0.549 C175.459,0.659 174.144,1.353 171.945,2.428 C170.744,3.019 169.280,3.725 167.593,4.514 C166.221,5.159 164.725,5.894 163.112,6.710 C164.937,7.692 166.577,8.656 168.022,9.548 C169.605,10.523 170.986,11.373 172.122,12.073 C173.251,12.783 174.152,13.318 174.764,13.688 C175.264,13.988 175.570,14.171 175.668,14.230 C175.766,14.171 176.071,13.988 176.571,13.688 C177.183,13.318 178.084,12.783 179.213,12.073 C180.350,11.373 181.730,10.523 183.313,9.548 C184.758,8.656 186.398,7.692 188.224,6.710 C186.610,5.894 185.115,5.159 183.743,4.514 ZM218.822,6.923 C218.674,5.575 217.759,4.359 216.625,3.606 C215.463,2.841 214.067,2.501 212.638,2.350 C211.927,2.277 211.186,2.254 210.476,2.255 L209.359,2.272 L208.285,2.323 C206.841,2.417 205.421,2.601 204.036,2.852 C201.269,3.366 198.639,4.097 196.194,4.949 C194.544,5.520 192.971,6.148 191.491,6.790 C193.116,7.556 194.830,8.352 196.631,9.129 C199.012,10.154 201.553,11.174 204.320,11.765 C205.701,12.059 207.132,12.256 208.593,12.305 C209.321,12.320 210.055,12.295 210.809,12.266 C211.545,12.204 212.282,12.143 213.019,12.019 C214.480,11.773 215.959,11.359 217.149,10.525 C217.740,10.110 218.209,9.560 218.484,8.928 C218.629,8.616 218.721,8.282 218.782,7.934 C218.810,7.807 218.832,7.568 218.842,7.410 C218.843,7.253 218.843,7.095 218.822,6.923 ZM173.720,7.278 C173.720,6.226 174.592,5.373 175.667,5.373 C176.743,5.373 177.615,6.226 177.615,7.278 C177.615,8.331 176.743,9.184 175.667,9.184 C174.592,9.184 173.720,8.331 173.720,7.278 ZM124.313,7.797 L-0.001,6.650 L124.313,5.504 C124.964,5.497 125.495,6.013 125.495,6.650 C125.495,7.288 124.964,7.803 124.313,7.797 Z"/>
</svg>
