
<svg id="social-icons" xmlns="http://www.w3.org/2000/svg" xmlns:xlink="http://www.w3.org/1999/xlink">
  <!-- HEADER ICONS ====-->
  <symbol id="login" viewBox="0 0 1369 1369">
    <path d="M684,783.2c-66,0-161.5-9.6-229-92.8c-52.7-64.9-86.7-180.1-86.7-293.4c0-86.3,20.4-214,77.8-289.9
        c64-84.8,156.2-96.2,238-96.2c80.8,0,172,11.5,236.1,96.6c57.1,75.8,77.4,203.3,77.4,289.6c0,85.9-18.9,203.8-72.1,277.2
        C872.2,747.6,793.3,783.2,684,783.2z M684,83.6c-91.7,0-143.9,19.5-180,67.3c-37.1,49.2-63.1,150.4-63.1,246.1
        c0,96.1,28.3,195.6,70.5,247.5c37.5,46.2,89.1,65.9,172.6,65.9c85.5,0,143.5-25.1,182.5-78.9c35.4-48.9,58.3-141,58.3-234.6
        c0-95.7-25.8-196.8-62.7-245.8C819.7,95.1,760.3,83.6,684,83.6z"/>
    <path d="M822.5,1361.7H118.3l8.1-317.2c6.5-51.3,34.7-97.3,77.5-126.3l234.8-159l40.7,60.2l-234.8,159
        c-25,16.9-41.7,43.7-45.9,73.5l-5.9,237.1h629.6V1361.7z"/>
    <path d="M1247.4,1361.7H543.2V1289h629.6l-5.9-237.1c-4.3-29.9-20.9-56.6-46-73.5l-234.7-159l40.7-60.2l234.7,159
        c42.8,29,71.1,75,77.6,126.3l0.3,3.7L1247.4,1361.7z"/>
  </symbol>

  <symbol id="card-to_stash" viewBox="0 0 110 128">
    <polygon points="71.6,103 14.3,103 0.7,65.3 85.4,65.3 85.4,69.7 7,69.7 17.4,98.6 71.6,98.6  "/>
    <polygon points="70.2,109.8 66.1,108.1 91.2,48 109.4,48 109.4,52.4 94.1,52.4  "/>
    <rect x="31.2" y="114.6" width="27.6" height="4.4"/>
    <path d="M66.8,126.9c-5.6,0-10.1-4.5-10.1-10.1c0-5.6,4.5-10.1,10.1-10.1c5.6,0,10.1,4.5,10.1,10.1   C76.9,122.4,72.4,126.9,66.8,126.9z M66.8,111.2c-3.1,0-5.7,2.5-5.7,5.7c0,3.1,2.5,5.7,5.7,5.7c3.1,0,5.7-2.5,5.7-5.7   C72.4,113.7,69.9,111.2,66.8,111.2z"/>
    <path d="M23.3,126.9c-5.6,0-10.1-4.5-10.1-10.1c0-5.6,4.5-10.1,10.1-10.1s10.1,4.5,10.1,10.1C33.4,122.4,28.9,126.9,23.3,126.9z    M23.3,111.2c-3.1,0-5.7,2.5-5.7,5.7c0,3.1,2.5,5.7,5.7,5.7s5.7-2.5,5.7-5.7C29,113.7,26.4,111.2,23.3,111.2z"/>
    <path class="st0" d="M44,42.8"/>
    <rect x="45.4" y="1.1" width="4.4" height="45.3"/>
    <polygon points="47.7,49.6 33.6,35.5 36.7,32.3 47.7,43.3 58.5,32.5 61.6,35.6  "/>
  </symbol>
  <!-- END HEADER ICONS -->



  <!-- SOCIAL NETWORK ICONS ================ -->
  <symbol id="fb" viewBox="0 0 13 23">
    <path fill-rule="evenodd"
          d="M11.535,-0.007 L8.657,-0.011 C5.423,-0.011 2.933,2.213 2.933,5.654 L2.933,8.067 L0.438,8.067 C0.189,8.067 -0.014,8.275 -0.014,8.535 L-0.014,12.520 C-0.014,12.778 0.189,12.989 0.438,12.989 L2.933,12.989 L2.933,22.539 C2.933,22.797 3.136,23.007 3.386,23.007 L7.561,23.007 C7.811,23.007 8.014,22.797 8.014,22.539 L8.014,12.989 L11.598,12.989 C11.848,12.989 12.050,12.778 12.050,12.520 L12.052,8.535 C12.052,8.411 12.004,8.292 11.919,8.203 C11.835,8.115 11.719,8.067 11.599,8.067 L8.014,8.067 L8.014,6.052 C8.014,4.987 8.259,4.647 9.595,4.647 L11.534,4.646 C11.785,4.646 11.986,4.435 11.986,4.178 L11.986,0.463 C11.986,0.204 11.785,-0.006 11.535,-0.007 L11.535,-0.007 Z"/>
  </symbol>

  <symbol id="youtube" viewBox="0 0 27 20">
    <path fill-rule="evenodd"
          d="M26.219,5.118 C26.219,3.032 24.529,0.942 22.442,0.942 L4.728,0.942 C2.642,0.942 0.951,3.032 0.951,5.118 L0.951,15.241 C0.951,17.327 2.642,19.017 4.728,19.017 L22.442,19.017 C24.529,19.017 26.219,17.327 26.219,15.241 L26.219,5.118 ZM11.059,14.451 L11.059,4.542 L18.275,9.696 L11.059,14.451 Z"/>
  </symbol>

  <symbol id="instagram" viewBox="0 0 21 20">
    <path fill-rule="evenodd"
          d="M20.659,14.061 C20.640,14.897 20.482,15.725 20.190,16.509 C19.663,17.862 18.593,18.933 17.239,19.459 C16.455,19.751 15.627,19.909 14.790,19.928 C13.713,19.977 13.370,19.989 10.629,19.989 C7.887,19.989 7.544,19.977 6.466,19.928 C5.630,19.909 4.802,19.751 4.018,19.459 C2.664,18.933 1.593,17.862 1.067,16.509 C0.775,15.725 0.616,14.897 0.599,14.061 C0.549,12.983 0.538,12.641 0.538,9.900 C0.538,7.159 0.549,6.816 0.599,5.739 C0.616,4.902 0.775,4.075 1.067,3.291 C1.593,1.937 2.664,1.067 4.018,0.541 C4.802,0.249 5.630,0.090 6.466,0.072 C7.544,0.023 7.887,0.012 10.629,0.012 C13.370,0.012 13.713,0.023 14.790,0.072 C15.627,0.090 16.455,0.249 17.239,0.541 C18.593,1.067 19.663,1.937 20.190,3.291 C20.482,4.075 20.640,4.902 20.659,5.739 C20.708,6.816 20.719,7.159 20.719,9.900 C20.719,12.641 20.708,12.983 20.659,14.061 ZM10.632,4.718 C10.632,4.718 10.630,4.718 10.629,4.718 C7.767,4.718 5.446,7.038 5.446,9.900 C5.446,12.761 7.767,15.081 10.629,15.081 C13.491,15.081 15.811,12.761 15.811,9.900 C15.812,7.039 13.493,4.720 10.632,4.718 ZM16.017,3.302 C15.348,3.302 14.806,3.845 14.806,4.513 C14.806,5.182 15.348,5.724 16.017,5.724 C16.685,5.724 17.228,5.182 17.228,4.513 C17.227,3.845 16.685,3.303 16.017,3.302 ZM10.632,13.261 C10.632,13.261 10.630,13.261 10.629,13.261 C8.771,13.261 7.266,11.757 7.266,9.900 C7.266,8.044 8.771,6.538 10.628,6.538 C12.485,6.538 13.991,8.044 13.991,9.900 C13.992,11.755 12.487,13.261 10.632,13.261 Z"/>
  </symbol>

  <symbol id="pinterest" viewBox="0 0 21 21">
    <path fill-rule="evenodd"
          d="M10.890,0.264 C5.305,0.264 0.767,4.794 0.767,10.369 C0.767,14.516 3.246,18.470 6.840,20.037 C6.806,19.341 6.840,18.069 7.015,17.303 C7.225,16.467 8.307,11.798 8.307,11.798 C8.307,11.798 7.992,11.136 7.992,10.195 C7.992,8.697 8.865,7.581 9.947,7.581 C10.855,7.581 11.309,8.278 11.309,9.115 C11.309,10.021 10.715,11.415 10.401,12.704 C10.157,13.784 10.925,14.655 12.006,14.655 C13.926,14.655 15.218,12.181 15.218,9.289 C15.218,7.059 13.717,5.422 10.994,5.422 C7.923,5.422 6.003,7.720 6.003,10.265 C6.003,11.136 6.248,11.763 6.666,12.251 C6.840,12.460 6.876,12.565 6.806,12.808 C6.771,12.982 6.631,13.435 6.596,13.609 C6.527,13.854 6.317,13.958 6.073,13.854 C4.641,13.261 4.014,11.728 4.014,9.985 C4.014,7.129 6.422,3.679 11.239,3.679 C15.113,3.679 17.661,6.466 17.661,9.463 C17.661,13.435 15.462,16.397 12.216,16.397 C11.134,16.397 10.087,15.805 9.738,15.143 C9.738,15.143 9.144,17.477 9.039,17.930 C8.830,18.697 8.412,19.898 8.028,20.491 C8.935,20.769 9.912,20.909 10.890,20.909 C16.475,20.909 21.012,15.979 21.012,10.404 C21.012,4.829 16.475,0.264 10.890,0.264 "/>
  </symbol>

  <symbol id="loupe" viewBox="0 0 15 14">
    <path fill-rule="evenodd"
          d="M14.353,12.646 L13.646,13.353 L10.375,10.082 C9.280,11.255 7.732,12.000 6.000,12.000 C2.686,12.000 -0.000,9.314 -0.000,6.000 C-0.000,2.686 2.686,-0.000 6.000,-0.000 C9.314,-0.000 12.000,2.686 12.000,6.000 C12.000,7.220 11.631,8.351 11.006,9.298 L14.353,12.646 ZM6.000,1.000 C3.238,1.000 1.000,3.238 1.000,6.000 C1.000,8.761 3.238,11.000 6.000,11.000 C7.456,11.000 8.754,10.368 9.668,9.375 L9.646,9.353 L9.871,9.129 C10.566,8.270 11.000,7.191 11.000,6.000 C11.000,3.238 8.761,1.000 6.000,1.000 Z"/>
  </symbol>

  <symbol id="twitter" viewBox="0 0 29 23">
    <path fill-rule="evenodd"
          d="M28.997,3.129 C27.970,3.574 26.857,3.883 25.693,4.018 C26.883,3.322 27.790,2.219 28.226,0.905 C27.113,1.549 25.881,2.018 24.563,2.269 C23.519,1.181 22.021,0.496 20.369,0.496 C17.194,0.496 14.618,3.013 14.618,6.115 C14.618,6.559 14.670,6.985 14.764,7.396 C9.979,7.160 5.744,4.927 2.902,1.524 C2.404,2.352 2.122,3.322 2.122,4.351 C2.122,6.300 3.141,8.023 4.681,9.025 C3.739,9.001 2.858,8.742 2.080,8.323 L2.080,8.391 C2.080,11.116 4.065,13.390 6.692,13.910 C6.213,14.034 5.700,14.100 5.178,14.100 C4.810,14.100 4.451,14.069 4.091,14.002 C4.828,16.235 6.949,17.855 9.466,17.907 C7.497,19.412 5.014,20.307 2.319,20.307 C1.857,20.307 1.403,20.281 0.950,20.232 C3.500,21.829 6.521,22.756 9.773,22.756 C20.351,22.756 26.138,14.193 26.138,6.768 L26.120,6.041 C27.251,5.246 28.226,4.260 28.997,3.129 L28.997,3.129 Z"/>
  </symbol>

  <symbol id="google_plus" viewBox="0 0 33 23">
    <path fill-rule="evenodd"
          d="M30.015,13.214 C30.005,14.279 30.000,15.338 29.995,16.397 C29.001,16.397 28.013,16.397 27.019,16.397 C27.009,15.338 27.009,14.279 26.999,13.219 C26.006,13.209 25.007,13.198 24.013,13.187 C24.013,12.134 24.013,11.080 24.013,10.020 C25.007,10.010 26.000,10.005 26.999,9.999 C27.004,8.935 27.014,7.875 27.024,6.816 C28.013,6.816 29.001,6.816 29.995,6.816 C30.000,7.875 30.005,8.940 30.015,9.999 C31.008,10.010 32.007,10.010 33.000,10.020 C33.000,11.074 33.000,12.134 33.000,13.187 C32.007,13.198 31.013,13.203 30.015,13.214 ZM6.743,22.012 C2.654,20.352 -0.242,15.748 0.102,11.053 C0.192,5.310 5.145,0.280 10.532,0.472 C13.114,0.344 15.540,1.541 17.518,3.223 C16.673,4.245 15.800,5.230 14.866,6.151 C12.490,4.400 9.110,3.899 6.733,5.922 C3.333,8.429 3.178,14.348 6.448,17.046 C9.629,20.123 15.640,18.595 16.519,13.885 C14.527,13.853 12.530,13.885 10.538,13.816 C10.532,12.549 10.527,11.282 10.532,10.015 C13.863,10.005 17.193,9.999 20.528,10.026 C20.728,13.006 20.359,16.179 18.641,18.643 C16.040,22.545 10.817,23.684 6.743,22.012 Z"/>
  </symbol>

  <symbol id="login_google_plus" viewBox="0 0 23 15">
    <path fill-rule="evenodd"
          d="M20.920,8.575 C20.913,9.291 20.910,10.004 20.906,10.717 C20.211,10.717 19.519,10.717 18.824,10.717 C18.817,10.004 18.817,9.291 18.810,8.578 C18.115,8.571 17.416,8.564 16.721,8.557 C16.721,7.848 16.721,7.138 16.721,6.425 C17.416,6.418 18.112,6.415 18.810,6.411 C18.814,5.695 18.821,4.982 18.828,4.269 C19.519,4.269 20.211,4.269 20.906,4.269 C20.910,4.982 20.913,5.698 20.920,6.411 C21.615,6.418 22.314,6.418 23.009,6.425 C23.009,7.135 23.009,7.848 23.009,8.557 C22.314,8.564 21.619,8.568 20.920,8.575 ZM4.638,14.497 C1.777,13.379 -0.250,10.280 -0.009,7.120 C0.054,3.255 3.520,-0.131 7.289,-0.002 C9.095,-0.088 10.793,0.718 12.176,1.850 C11.586,2.538 10.975,3.201 10.321,3.821 C8.659,2.642 6.294,2.305 4.631,3.667 C2.252,5.354 2.143,9.338 4.431,11.154 C6.657,13.225 10.863,12.197 11.478,9.026 C10.084,9.005 8.686,9.026 7.293,8.980 C7.289,8.127 7.286,7.274 7.289,6.422 C9.619,6.415 11.949,6.411 14.283,6.429 C14.423,8.435 14.164,10.570 12.962,12.229 C11.142,14.855 7.488,15.622 4.638,14.497 Z"/>
  </symbol>

  <symbol id="login_fb" viewBox="0 0 11 21">
    <path fill-rule="evenodd"
          d="M10.506,0.687 L7.884,0.683 C4.939,0.683 3.036,2.611 3.036,5.594 L3.036,7.859 L0.399,7.859 C0.173,7.859 -0.012,8.040 -0.012,8.265 L-0.012,11.547 C-0.012,11.771 0.173,11.953 0.399,11.953 L3.036,11.953 L3.036,20.232 C3.036,20.456 3.220,20.638 3.448,20.638 L6.886,20.638 C7.114,20.638 7.299,20.456 7.299,20.232 L7.299,11.953 L10.380,11.953 C10.608,11.953 10.792,11.771 10.792,11.547 L10.794,8.265 C10.794,8.158 10.750,8.055 10.673,7.977 C10.596,7.901 10.492,7.859 10.382,7.859 L7.299,7.859 L7.299,5.939 C7.299,5.017 7.522,4.548 8.739,4.548 L10.505,4.547 C10.733,4.547 10.917,4.365 10.917,4.141 L10.917,1.095 C10.917,0.869 10.733,0.688 10.506,0.687 L10.506,0.687 Z"/>
  </symbol>
  <!-- END SOCIAL NETWORK ICONS ================ -->

  <symbol id="percent" viewBox="0 0 17 21">
    <path fill-rule="evenodd"
          d="M1.433,20.280 L2.666,20.280 L15.129,1.106 L13.896,1.106 L1.433,20.280 ZM4.857,1.421 C5.076,1.540 5.268,1.750 5.432,2.051 C5.597,2.352 5.724,2.759 5.816,3.270 C5.907,3.781 5.953,4.430 5.953,5.215 C5.953,6.000 5.907,6.648 5.816,7.159 C5.724,7.671 5.597,8.077 5.432,8.378 C5.268,8.680 5.076,8.890 4.857,9.009 C4.638,9.128 4.409,9.187 4.172,9.187 C3.935,9.187 3.707,9.128 3.487,9.009 C3.268,8.890 3.077,8.680 2.912,8.378 C2.748,8.077 2.620,7.671 2.529,7.159 C2.437,6.648 2.392,6.000 2.392,5.215 C2.392,4.430 2.437,3.781 2.529,3.270 C2.620,2.759 2.748,2.352 2.912,2.051 C3.077,1.750 3.268,1.540 3.487,1.421 C3.707,1.302 3.935,1.243 4.172,1.243 C4.409,1.243 4.638,1.302 4.857,1.421 ZM2.707,1.147 C2.241,1.357 1.835,1.654 1.488,2.037 C1.141,2.421 0.862,2.882 0.652,3.421 C0.442,3.960 0.337,4.557 0.337,5.215 C0.337,5.872 0.442,6.470 0.652,7.009 C0.862,7.548 1.141,8.009 1.488,8.392 C1.835,8.776 2.241,9.073 2.707,9.282 C3.172,9.493 3.661,9.597 4.172,9.597 C4.683,9.597 5.172,9.493 5.638,9.282 C6.103,9.073 6.509,8.776 6.857,8.392 C7.203,8.009 7.482,7.548 7.692,7.009 C7.902,6.470 8.007,5.872 8.007,5.215 C8.007,4.557 7.902,3.960 7.692,3.421 C7.482,2.882 7.203,2.421 6.857,2.037 C6.509,1.654 6.103,1.357 5.638,1.147 C5.172,0.937 4.683,0.832 4.172,0.832 C3.661,0.832 3.172,0.937 2.707,1.147 ZM13.074,12.377 C13.293,12.496 13.485,12.706 13.650,13.008 C13.814,13.309 13.942,13.715 14.033,14.226 C14.124,14.738 14.170,15.386 14.170,16.171 C14.170,16.957 14.124,17.605 14.033,18.116 C13.942,18.628 13.814,19.034 13.650,19.335 C13.485,19.636 13.293,19.846 13.074,19.965 C12.855,20.084 12.627,20.143 12.390,20.143 C12.152,20.143 11.924,20.084 11.705,19.965 C11.486,19.846 11.294,19.636 11.130,19.335 C10.965,19.034 10.837,18.628 10.746,18.116 C10.655,17.605 10.609,16.957 10.609,16.171 C10.609,15.386 10.655,14.738 10.746,14.226 C10.837,13.715 10.965,13.309 11.130,13.008 C11.294,12.706 11.486,12.496 11.705,12.377 C11.924,12.259 12.152,12.200 12.390,12.200 C12.627,12.200 12.855,12.259 13.074,12.377 ZM10.924,12.104 C10.459,12.314 10.052,12.610 9.705,12.994 C9.358,13.377 9.080,13.839 8.870,14.377 C8.660,14.916 8.555,15.514 8.555,16.171 C8.555,16.829 8.660,17.427 8.870,17.965 C9.080,18.504 9.358,18.965 9.705,19.349 C10.052,19.732 10.459,20.029 10.924,20.239 C11.390,20.448 11.878,20.554 12.390,20.554 C12.901,20.554 13.389,20.448 13.855,20.239 C14.321,20.029 14.727,19.732 15.074,19.349 C15.421,18.965 15.699,18.504 15.909,17.965 C16.119,17.427 16.224,16.829 16.224,16.171 C16.224,15.514 16.119,14.916 15.909,14.377 C15.699,13.839 15.421,13.377 15.074,12.994 C14.727,12.610 14.321,12.314 13.855,12.104 C13.389,11.894 12.901,11.789 12.390,11.789 C11.878,11.789 11.390,11.894 10.924,12.104 Z"/>
  </symbol>


  <!-- COLLECTIONS -->
  <symbol id="sofa" viewBox="0 0 200 200">
    <path fill-rule="evenodd"
          d="M145.9,103.9v37.5h-0.1c-0.1,0.8-0.4,1.6-0.9,2.3v2c0,1.3-1.1,2.4-2.4,2.4h-5.1c-1.3,0-2.4-1.1-2.4-2.4v-2
c-0.5-0.7-0.7-1.5-0.9-2.3H63.8c-0.1,0.8-0.4,1.6-0.9,2.3v2c0,1.3-1.1,2.4-2.4,2.4h-5.1c-1.3,0-2.4-1.1-2.4-2.4v-2
c-0.5-0.7-0.7-1.5-0.9-2.3H52v-37.6h0.3C45.3,102.2,40,95.9,40,88.3c0-8.7,7.1-15.7,15.7-15.7c1.8,0,3.5,0.3,5.1,0.9
C61.4,61.5,71.4,52,83.4,52h32c12.1,0,22,9.5,22.6,21.5c1.6-0.6,3.4-0.9,5.2-0.9c8.7,0,15.7,7.1,15.7,15.7
C159,96.1,153.3,102.6,145.9,103.9z M136.7,142.7l0.2,0.3v2.6c0,0.2,0.2,0.4,0.4,0.4h5.1c0.2,0,0.4-0.2,0.4-0.4V143l0.2-0.3
c0.3-0.4,0.5-0.9,0.6-1.3h-7.6C136.2,141.8,136.4,142.3,136.7,142.7z M54.8,142.7L55,143v2.6c0,0.2,0.2,0.4,0.4,0.4h5.1
c0.2,0,0.4-0.2,0.4-0.4V143l0.2-0.3c0.3-0.4,0.5-0.9,0.6-1.3h-7.6C54.3,141.8,54.5,142.3,54.8,142.7z M54,139.4h89.9v-35.3
c-0.2,0-0.4,0-0.6,0c-5.9,0-11-3.3-13.7-8.1v27H69.5V96c-2.7,4.8-7.8,8.1-13.7,8.1c-0.6,0-1.2,0-1.7-0.1V139.4z M127.5,121v-11.9
c-0.5-0.5-4.1-3.2-28-3.2s-27.6,2.7-28,3.2V121H127.5z M55.7,74.6c-7.6,0-13.7,6.2-13.7,13.7c0,7.6,6.2,13.7,13.7,13.7
c7.6,0,13.7-6.2,13.7-13.7C69.5,80.8,63.3,74.6,55.7,74.6z M115.4,54h-32C72.2,54,63,63.1,62.8,74.3c5.1,2.6,8.7,7.9,8.7,14v18.5
c3.1-1.5,10.6-2.9,28-2.9s24.9,1.4,28,2.9V88.3c0-6.1,3.5-11.4,8.5-14C135.9,63.1,126.7,54,115.4,54z M143.3,74.6
c-7.6,0-13.7,6.2-13.7,13.7c0,7.6,6.2,13.7,13.7,13.7c7.6,0,13.7-6.2,13.7-13.7C157,80.8,150.8,74.6,143.3,74.6z M143.3,94.8
c-3.6,0-6.5-2.9-6.5-6.5c0-3.6,2.9-6.5,6.5-6.5c3.6,0,6.5,2.9,6.5,6.5C149.8,91.9,146.9,94.8,143.3,94.8z M143.3,83.8
c-2.5,0-4.5,2-4.5,4.5c0,2.5,2,4.5,4.5,4.5c2.5,0,4.5-2,4.5-4.5C147.8,85.9,145.8,83.8,143.3,83.8z M115.5,94.5l-2-2l-2,2l-1.4-1.4
l2-2l-2-2l1.4-1.4l2,2l2-2l1.4,1.4l-2,2l2,2L115.5,94.5z M115.5,74.3l-2-2l-2,2l-1.4-1.4l2-2l-2-2l1.4-1.4l2,2l2-2l1.4,1.4l-2,2l2,2
L115.5,74.3z M87.4,94.5l-2-2l-2,2l-1.4-1.4l2-2l-2-2l1.4-1.4l2,2l2-2l1.4,1.4l-2,2l2,2L87.4,94.5z M87.4,74.3l-2-2l-2,2l-1.4-1.4
l2-2l-2-2l1.4-1.4l2,2l2-2l1.4,1.4l-2,2l2,2L87.4,74.3z M55.7,94.8c-3.6,0-6.5-2.9-6.5-6.5c0-3.6,2.9-6.5,6.5-6.5
c3.6,0,6.5,2.9,6.5,6.5C62.2,91.9,59.3,94.8,55.7,94.8z M55.7,83.8c-2.5,0-4.5,2-4.5,4.5c0,2.5,2,4.5,4.5,4.5c2.5,0,4.5-2,4.5-4.5
C60.2,85.9,58.2,83.8,55.7,83.8z"/>
  </symbol>

  <symbol id="commode" viewBox="0 0 200 200">
    <path fill-rule="evenodd"
          d="M154.4,57.3v77.6l1,4.4l2.6,5.9h-0.6c-0.1,0.8-0.4,1.6-0.9,2.2v2c0,1.3-1.1,2.4-2.4,2.4h-5.1c-1.3,0-2.4-1.1-2.4-2.4v-2
c-0.5-0.7-0.8-1.5-0.9-2.2H54.4c-0.1,0.8-0.4,1.6-0.9,2.2v2c0,1.3-1.1,2.4-2.4,2.4h-5.1c-1.3,0-2.4-1.1-2.4-2.4v-2
c-0.5-0.7-0.8-1.5-0.9-2.2H42l2.6-5.9l1-4.4V57.3l-1-4.4L42,46.9h116l-2.6,5.9L154.4,57.3z M148.3,146.6l0.2,0.3v2.6
c0,0.2,0.2,0.4,0.4,0.4h5.1c0.2,0,0.4-0.2,0.4-0.4v-2.6l0.2-0.3c0.3-0.4,0.5-0.9,0.6-1.3h-7.7C147.8,145.8,148,146.2,148.3,146.6z
 M45.3,146.6l0.2,0.3v2.6c0,0.2,0.2,0.4,0.4,0.4H51c0.2,0,0.4-0.2,0.4-0.4v-2.6l0.2-0.3c0.3-0.4,0.5-0.9,0.6-1.3h-7.7
C44.8,145.8,45,146.2,45.3,146.6z M45,143.3h109.9l-1.1-2.7H46.2L45,143.3z M152.6,56.2l0.6-2.7H46.8l0.6,2.7H152.6z M47.5,58.2V134
h104.9V58.2H47.5z M152.6,136H47.3l-0.6,2.7h106.4L152.6,136z M45,48.9l1.1,2.7h107.6l1.1-2.7H45z M55.4,110.6h89.2v17.8H55.4V110.6
z M57.4,126.4h85.2v-13.8H57.4V126.4z M123.6,122.9c-1.9,0-3.5-1.5-3.5-3.4c0-1.9,1.6-3.4,3.5-3.4c1.9,0,3.5,1.5,3.5,3.4
C127.1,121.4,125.5,122.9,123.6,122.9z M123.6,118.1c-0.8,0-1.5,0.7-1.5,1.5c0,0.8,0.7,1.5,1.5,1.5s1.5-0.7,1.5-1.5
C125.1,118.7,124.4,118.1,123.6,118.1z M76.4,122.9c-1.9,0-3.5-1.5-3.5-3.4c0-1.9,1.6-3.4,3.5-3.4c1.9,0,3.5,1.5,3.5,3.4
C79.8,121.4,78.3,122.9,76.4,122.9z M76.4,118.1c-0.8,0-1.5,0.7-1.5,1.5c0,0.8,0.7,1.5,1.5,1.5c0.8,0,1.5-0.7,1.5-1.5
C77.8,118.7,77.2,118.1,76.4,118.1z M55.4,87.2h89.2V105H55.4V87.2z M57.4,103h85.2V89.2H57.4V103z M123.6,99.6
c-1.9,0-3.5-1.5-3.5-3.4c0-1.9,1.6-3.4,3.5-3.4c1.9,0,3.5,1.5,3.5,3.4C127.1,98,125.5,99.6,123.6,99.6z M123.6,94.7
c-0.8,0-1.5,0.7-1.5,1.5c0,0.8,0.7,1.5,1.5,1.5s1.5-0.7,1.5-1.5C125.1,95.3,124.4,94.7,123.6,94.7z M76.4,99.6
c-1.9,0-3.5-1.5-3.5-3.4c0-1.9,1.6-3.4,3.5-3.4c1.9,0,3.5,1.5,3.5,3.4C79.8,98,78.3,99.6,76.4,99.6z M76.4,94.7
c-0.8,0-1.5,0.7-1.5,1.5c0,0.8,0.7,1.5,1.5,1.5c0.8,0,1.5-0.7,1.5-1.5C77.8,95.3,77.2,94.7,76.4,94.7z M55.4,64.2h89.2v17.8H55.4
V64.2z M57.4,79.9h85.2V66.2H57.4V79.9z M123.6,76.5c-1.9,0-3.5-1.5-3.5-3.4c0-1.9,1.6-3.4,3.5-3.4c1.9,0,3.5,1.5,3.5,3.4
C127.1,74.9,125.5,76.5,123.6,76.5z M123.6,71.6c-0.8,0-1.5,0.7-1.5,1.5c0,0.8,0.7,1.5,1.5,1.5s1.5-0.7,1.5-1.5
C125.1,72.2,124.4,71.6,123.6,71.6z M76.4,76.5c-1.9,0-3.5-1.5-3.5-3.4c0-1.9,1.6-3.4,3.5-3.4c1.9,0,3.5,1.5,3.5,3.4
C79.8,74.9,78.3,76.5,76.4,76.5z M76.4,71.6c-0.8,0-1.5,0.7-1.5,1.5c0,0.8,0.7,1.5,1.5,1.5c0.8,0,1.5-0.7,1.5-1.5
C77.8,72.2,77.2,71.6,76.4,71.6z"/>
  </symbol>

  <symbol id="bookcase" viewBox="0 0 200 200">
    <path fill-rule="evenodd"
          d="M138.5,42.4v108.4l1,4.5l2.6,6h-0.6c-0.1,0.8-0.4,1.6-0.9,2.3v2c0,1.3-1.1,2.4-2.4,2.4h-5.1
c-1.3,0-2.4-1.1-2.4-2.4v-2c-0.5-0.7-0.8-1.5-0.9-2.3H70.4c-0.1,0.8-0.4,1.6-0.9,2.3v2c0,1.3-1.1,2.4-2.4,2.4h-5.1
c-1.3,0-2.4-1.1-2.4-2.4v-2c-0.5-0.7-0.8-1.5-0.9-2.3H58l2.6-6l1-4.5V42.4l-1-4.5L58,32h84l-2.6,6L138.5,42.4z M132.3,162.7l0.2,0.3
v2.6c0,0.2,0.2,0.4,0.4,0.4h5.1c0.2,0,0.4-0.2,0.4-0.4v-2.6l0.2-0.3c0.3-0.4,0.5-0.9,0.6-1.3h-7.7
C131.8,161.8,132,162.3,132.3,162.7z M61.3,162.7l0.2,0.3v2.6c0,0.2,0.2,0.4,0.4,0.4H67c0.2,0,0.4-0.2,0.4-0.4v-2.6l0.2-0.3
c0.3-0.4,0.5-0.9,0.6-1.3h-7.7C60.8,161.8,61,162.3,61.3,162.7z M61,159.3h77.9l-1.1-2.7H62.2L61,159.3z M63.5,130.8V150h72.9v-19.2
H63.5z M136.4,128.7V43.3H101v85.4H136.4z M99,128.7V43.3H63.5v85.4H99z M136.6,41.3l0.6-2.7H62.8l0.6,2.7H136.6z M136.6,152H63.3
l-0.6,2.7h74.5L136.6,152z M61,34l1.1,2.7h75.6l1.1-2.7H61z M96,125.3H66.5V47.7H96V125.3z M94,49.7H68.5v73.6H94V49.7z M87.4,93.8
c1.6,0,2.8,1.3,2.8,2.8c0,1.6-1.3,2.8-2.8,2.8s-2.8-1.3-2.8-2.8C84.6,95.1,85.9,93.8,87.4,93.8z M87.4,97.5c0.5,0,0.8-0.4,0.8-0.8
c0-0.5-0.4-0.8-0.8-0.8c-0.5,0-0.8,0.4-0.8,0.8C86.6,97.1,87,97.5,87.4,97.5z M133.4,125.3H104V47.7h29.4V125.3z M131.4,49.7H106
v73.6h25.4V49.7z M112.5,93.8c1.6,0,2.8,1.3,2.8,2.8c0,1.6-1.3,2.8-2.8,2.8c-1.6,0-2.8-1.3-2.8-2.8C109.7,95.1,111,93.8,112.5,93.8z
 M112.5,97.5c0.5,0,0.8-0.4,0.8-0.8c0-0.5-0.4-0.8-0.8-0.8c-0.5,0-0.8,0.4-0.8,0.8C111.7,97.1,112.1,97.5,112.5,97.5z M66.5,133.5
h66.9v13.8H66.5V133.5z M68.5,145.3h62.9v-9.8H68.5V145.3z M117.6,143.2c-1.6,0-2.8-1.3-2.8-2.8c0-1.6,1.3-2.8,2.8-2.8
c1.6,0,2.8,1.3,2.8,2.8C120.4,141.9,119.1,143.2,117.6,143.2z M117.6,139.5c-0.5,0-0.8,0.4-0.8,0.8c0,0.5,0.4,0.8,0.8,0.8
c0.5,0,0.8-0.4,0.8-0.8C118.4,139.9,118,139.5,117.6,139.5z M82.4,143.2c-1.6,0-2.8-1.3-2.8-2.8c0-1.6,1.3-2.8,2.8-2.8
c1.6,0,2.8,1.3,2.8,2.8C85.3,141.9,84,143.2,82.4,143.2z M82.4,139.5c-0.5,0-0.8,0.4-0.8,0.8c0,0.5,0.4,0.8,0.8,0.8
c0.5,0,0.8-0.4,0.8-0.8C83.2,139.9,82.9,139.5,82.4,139.5z"/>
  </symbol>

  <symbol id="mirror" viewBox="0 0 200 200">
    <path fill-rule="evenodd"
          d="M122.4,154H77.6L46,122.3V77.6l31.6-31.6h44.7L154,77.6v44.7L122.4,154z M152,78.4l-30.5-30.5H78.4L48,78.4
v43.1L78.4,152h43.1l30.5-30.5V78.4z M79.1,150.5l-29.6-29.6V79l29.6-29.6h41.8L150.5,79v41.8l-29.6,29.6H79.1z M148.5,79.9
l-28.4-28.4H79.9L51.5,79.9V120l28.4,28.4h40.2l28.4-28.4V79.9z M83.8,139.1l-23-23V83.7l23-23h32.5l23,23v32.5l-23,23H83.8z
 M137.2,84.5l-21.8-21.8H84.6L62.8,84.5v30.8l21.8,21.8h30.8l21.8-21.8V84.5z M85.3,135.4l-20.8-20.8V85.2l20.8-20.8h29.4l20.8,20.8
v29.4l-20.8,20.8H85.3z M133.5,86.1l-19.6-19.6H86.1L66.5,86.1v27.8l19.6,19.6h27.8l19.6-19.6V86.1z"/>
  </symbol>

  <symbol id="bed" viewBox="0 0 200 200">
    <path fill-rule="evenodd"
          d="M166.5,61.7h-3.7c-1.3,0-2.4,1.1-2.4,2.5v0.7c-8-3.1-47.1-17.9-52.2-17.9c-2.1,0-3.6,0.5-4.6,1.5
c-1.4,1.4-1.4,3.5-1.4,5.3l0,0.7c0,1.9-1.8,2-2.2,2c-0.2,0-2.2-0.1-2.2-2l0-0.7c0-1.8,0-3.9-1.4-5.3c-1-1-2.5-1.5-4.6-1.5
c-5.1,0-44.3,14.9-52.2,17.9v-0.7c0-1.4-1.1-2.5-2.4-2.5h-3.7c-1.3,0-2.4,1.1-2.4,2.5v85.3c0,1.4,1.1,2.5,2.4,2.5h3.7
c0.5,0,1-0.2,1.4-0.5c0.4,0.3,0.9,0.5,1.4,0.5h120c0.5,0,1-0.2,1.4-0.5c0.4,0.3,0.9,0.5,1.4,0.5h3.7c1.4,0,2.4-1.1,2.4-2.5V64.2
C169,62.8,167.9,61.7,166.5,61.7z M37.6,120.8v8v2v18.7c0,0.3-0.2,0.5-0.5,0.5h-3.7c-0.3,0-0.5-0.2-0.5-0.5V75.5h4.6V120.8z
 M37.6,73.5H33v-9.4c0-0.3,0.2-0.5,0.5-0.5h3.7c0.3,0,0.5,0.2,0.5,0.5V73.5z M160.4,149.4L160.4,149.4c0,0.3-0.2,0.5-0.4,0.5H40
c-0.2,0-0.4-0.2-0.4-0.4v0v-18.6h120.8V149.4z M160.4,128.7H39.6v-8c0-2.6,2.1-4.8,4.7-4.8h111.4c2.6,0,4.7,2.1,4.7,4.8V128.7z
 M59.2,113.5V97.9c0-0.3,0.2-0.5,0.5-0.5h33.6c0.2,0,0.5,0.2,0.5,0.5v15.6c0,0.3-0.2,0.5-0.5,0.5H59.7
C59.4,113.9,59.2,113.7,59.2,113.5z M106.3,113.5V97.9c0-0.3,0.2-0.5,0.5-0.5h33.6c0.2,0,0.5,0.2,0.5,0.5v15.6
c0,0.3-0.2,0.5-0.5,0.5h-33.6C106.5,113.9,106.3,113.7,106.3,113.5z M160.4,115.9c-1.2-1.2-2.9-2-4.7-2h-13c0-0.2,0.1-0.3,0.1-0.5
V97.9c0-1.4-1.1-2.5-2.4-2.5h-33.6c-1.3,0-2.4,1.1-2.4,2.5v15.6c0,0.2,0,0.3,0.1,0.5h-8.7c0-0.2,0.1-0.3,0.1-0.5V97.9
c0-1.4-1.1-2.5-2.4-2.5H59.7c-1.3,0-2.4,1.1-2.4,2.5v15.6c0,0.2,0,0.3,0.1,0.5h-13c-1.8,0-3.5,0.8-4.7,2V75.5h120.8V115.9z
 M160.4,73.5H39.6v-3.9c20.6-7.9,49.1-17.8,52.2-17.9c0.6,0,0.9,0.1,1.1,0.1c0,0.3,0.1,1,0,1.8l0,0.7c0,4.5,3.6,6.9,7,6.9
c3.4,0,7-2.4,7-6.9l0-0.7c0-0.9,0-1.5,0-1.8c0.2,0,0.5-0.1,1.1-0.1c3.2,0.1,31.7,10,52.3,17.9V73.5z M160.4,67.5
c-18.9-7.2-48.4-17.7-52.2-17.8c-0.9,0-2.1,0.1-2.6,0.7c-0.5,0.5-0.6,1.4-0.5,3.3l0,0.7c0,3.2-2.6,4.9-5,4.9c-2.4,0-5-1.7-5-4.8
l0-0.7c0-1.9,0-2.8-0.5-3.3c-0.5-0.5-1.7-0.7-2.6-0.7c0,0,0,0,0,0C88,49.8,58.4,60.3,39.6,67.5V67c13.7-5.3,48-18.1,52.2-18.1
c1.5,0,2.6,0.3,3.2,0.9c0.8,0.8,0.8,2.3,0.8,3.9l0,0.7c0,2.9,2.5,4,4.2,4c1.7,0,4.2-1.1,4.2-4l0-0.7c0-1.6,0-3.1,0.8-3.9
c0.6-0.6,1.7-0.9,3.2-0.9c4.3,0,38.6,12.8,52.2,18.1V67.5z M167,149.4c0,0.3-0.2,0.5-0.5,0.5h-3.7c-0.3,0-0.5-0.2-0.5-0.5v-18.7v-2
v-8V75.5h4.6V149.4z M167,73.5h-4.6v-9.4c0-0.3,0.2-0.5,0.5-0.5h3.7c0.3,0,0.5,0.2,0.5,0.5V73.5z"/>
  </symbol>

  <symbol id="small-table" viewBox="0 0 200 200">
    <path fill-rule="evenodd"
          d="M161.8,134.2c-0.2-0.1-0.4-0.2-0.6-0.4c-1.3-0.8-2.3-1.4-2.3-3.9c0-2.6,1.8-5.1,3.6-7.4
c1.8-2.4,3.5-4.6,3.5-7.2c0-3.9-1.3-5.7-2.1-6.4v-9.3h-54.2c1.9-2.1,4-6.4,4-15c0-6.2-1.3-10.5-4-13c-1.3-1.2-2.7-1.7-3.6-1.9v-4.9
l1.4-1.4c0.6-0.6,0.8-1.5,0.5-2.3c-0.3-0.8-1.1-1.3-2-1.3h-6.5H93c-0.9,0-1.6,0.5-2,1.3c-0.3,0.8-0.1,1.7,0.5,2.3l1.4,1.4v4.9
c-0.9,0.2-2.3,0.6-3.6,1.9c-2.6,2.5-4,6.8-4,13c0,8.6,2.1,12.9,4,15H35.1v9.3c-0.7,0.7-2.1,2.6-2.1,6.4c0,2.5,1.7,4.8,3.5,7.2
c1.8,2.4,3.6,4.8,3.6,7.4c0,2.5-1,3.1-2.3,3.9c-0.2,0.1-0.4,0.2-0.6,0.4c-1,0.6-1.4,1.8-1.1,2.9c0.3,1.1,1.3,1.9,2.5,1.9H44l0.1,0
c1.6-0.2,4.7-1.9,4.7-7c0-2-1.2-4.5-2.4-7.2c-1.4-3-3-6.5-2-8c0.5-0.7,1.6-1.1,3.5-1.1c3.4,0,5.3,0.6,8,1.5
c5.7,1.8,14.2,4.6,43.6,4.6c29.4,0,38-2.8,43.6-4.6c2.7-0.9,4.7-1.5,8-1.5c1.8,0,3,0.4,3.5,1.1c1,1.5-0.6,4.9-2,8
c-1.2,2.7-2.4,5.2-2.4,7.2c0,5,3.1,6.8,4.7,7l5.5,0c1.2,0,2.2-0.8,2.5-1.9C163.2,135.9,162.8,134.8,161.8,134.2z M87.3,84.7
c0-2.5,0.2-4.6,0.6-6.2c3.8,0.7,7.7,1.1,11.6,1.1c3.9,0,7.8-0.4,11.6-1.1c0.4,1.6,0.6,3.7,0.6,6.2c0,0.3,0,0.7,0,1
c-8,1.5-16.4,1.5-24.4,0C87.3,85.3,87.3,85,87.3,84.7z M92.9,62c0-0.1,0.1-0.1,0.1-0.1h6.5h6.5c0,0,0.1,0,0.1,0.1c0,0.1,0,0.1,0,0.1
l-1.9,1.9v5.8c-3.1,0.5-6.3,0.5-9.3,0v-5.8l-1.9-1.9C92.9,62.1,92.8,62.1,92.9,62z M90.6,73.2c1.5-1.4,3-1.5,3.2-1.5
c1.9,0.4,3.8,0.6,5.8,0.6c1.9,0,3.9-0.2,5.8-0.6c0.2,0,1.7,0,3.2,1.5c0.7,0.7,1.5,1.7,2.1,3.4c-7.2,1.3-14.8,1.3-22.1,0
C89.1,74.9,89.8,73.8,90.6,73.2z M87.4,87.7c4,0.7,8.1,1.1,12.1,1.1c4.1,0,8.2-0.4,12.1-1.1c-0.7,9.7-4.4,11.7-5.1,12h-7.1h-7.1
C91.8,99.4,88,97.4,87.4,87.7z M37.1,101.7h62.4h7.4h55.1v6.7H37.1V101.7z M160.9,136.5c0,0.1-0.2,0.4-0.6,0.4h-5.3
c-0.4-0.1-2.9-0.7-2.9-5c0-1.6,1.1-4,2.2-6.4c1.7-3.7,3.5-7.5,1.9-9.9c-0.9-1.3-2.5-2-5.1-2c-3.7,0-5.9,0.7-8.7,1.6
c-5.5,1.8-13.9,4.5-43,4.5c-29.1,0-37.5-2.7-43-4.5c-2.8-0.9-5-1.6-8.7-1.6c-2.6,0-4.3,0.7-5.1,2c-1.5,2.4,0.2,6.2,1.9,9.9
c1.1,2.4,2.2,4.8,2.2,6.4c0,4.2-2.5,4.9-2.9,5h-5.3c-0.4,0-0.5-0.3-0.6-0.4c0-0.1-0.1-0.4,0.2-0.6c0.2-0.1,0.3-0.2,0.5-0.3
c1.4-0.8,3.3-2,3.3-5.6c0-3.3-2.1-6.1-4-8.6c-1.6-2.1-3.1-4.1-3.1-6c0-3.1,1-4.5,1.5-5h126.1c0.4,0.4,1.5,1.8,1.5,5
c0,1.9-1.5,3.9-3.1,6c-1.9,2.5-4,5.3-4,8.6c0,3.6,1.9,4.7,3.3,5.6c0.2,0.1,0.4,0.2,0.5,0.3C161,136.1,161,136.4,160.9,136.5z"/>
  </symbol>

  <symbol id="tv" viewBox="0 0 200 200">
    <path fill-rule="evenodd"
          d="M164,109.8l-2.6,6l-1,4.5v16.3h0.7l2.9,6.7h-0.6c-0.1,0.8-0.4,1.6-0.9,2.3v2c0,1.3-1.1,2.4-2.4,2.4H155
c-1.3,0-2.4-1.1-2.4-2.4v-2c-0.5-0.7-0.7-1.5-0.9-2.3H47.3c-0.1,0.8-0.4,1.6-0.9,2.3v2c0,1.3-1.1,2.4-2.4,2.4h-5.1
c-1.3,0-2.4-1.1-2.4-2.4v-2c-0.5-0.7-0.7-1.5-0.9-2.3H35l2.9-6.7h0.7v-16.3l-1-4.5l-2.6-6h50.2v-3.8H50.9V50h97.3v56.1h-34.3v3.8
H164z M154.4,144.7l0.2,0.3v2.6c0,0.2,0.2,0.4,0.4,0.4h5.1c0.2,0,0.4-0.2,0.4-0.4v-2.6l0.2-0.3c0.3-0.4,0.5-0.9,0.6-1.3h-7.6
C153.8,143.8,154,144.3,154.4,144.7z M37.7,143.3c0.1,0.5,0.3,0.9,0.6,1.3l0.2,0.3v2.6c0,0.2,0.2,0.4,0.4,0.4H44
c0.2,0,0.4-0.2,0.4-0.4v-2.6l0.2-0.3c0.3-0.4,0.5-0.9,0.6-1.3H37.7z M38,141.3H161l-1.1-2.7h-41.1H80.3H39.2L38,141.3z M80.3,119.2
h38.4h40l0.6-2.7H39.7l0.6,2.7H80.3z M40.5,121.2v15.4h39.8v-15.4H40.5z M116.7,127.9v-6.7H82.3v6.7H116.7z M82.3,129.9v6.7h34.4
v-6.7H82.3z M118.7,121.2v15.4h39.8v-15.4H118.7z M146.2,104.1V52H52.9v52.1h32.3h28.6H146.2z M87.2,106.1v3.8h24.6v-3.8H87.2z
 M85.2,111.8H38l1.1,2.7h120.7l1.1-2.7h-47.1H85.2z M54.9,54h89.3v48.1H54.9V54z M56.9,100.1h85.3V56H56.9V100.1z M137.7,131.8
c-1.6,0-2.8-1.3-2.8-2.8c0-1.6,1.3-2.8,2.8-2.8c1.6,0,2.8,1.3,2.8,2.8C140.5,130.5,139.2,131.8,137.7,131.8z M137.7,128.1
c-0.5,0-0.8,0.4-0.8,0.8c0,0.5,0.4,0.8,0.8,0.8c0.5,0,0.8-0.4,0.8-0.8C138.5,128.5,138.1,128.1,137.7,128.1z M61.1,131.8
c-1.6,0-2.8-1.3-2.8-2.8c0-1.6,1.3-2.8,2.8-2.8c1.6,0,2.8,1.3,2.8,2.8C63.9,130.5,62.6,131.8,61.1,131.8z M61.1,128.1
c-0.5,0-0.8,0.4-0.8,0.8c0,0.5,0.4,0.8,0.8,0.8c0.5,0,0.8-0.4,0.8-0.8C61.9,128.5,61.5,128.1,61.1,128.1z"/>
  </symbol>

  <symbol id="panchette" viewBox="0 0 200 200">
    <path fill-rule="evenodd"
          d="M177,133.8L177,133.8c0,0.9-0.3,1.8-0.8,2.6v1.5c0,1.2-1,2.1-2.1,2.1h-4c-1.2,0-2.1-1-2.1-2.1v-1.5
c-0.5-0.8-0.8-1.7-0.8-2.6h0v-14.6H62.5v8.7v0.6v5.3c0,0.9-0.3,1.8-0.8,2.6v1.5c0,1.2-1,2.1-2.1,2.1h-4c-1.2,0-2.1-1-2.1-2.1v-1.5
c-0.5-0.8-0.8-1.7-0.8-2.6v-5.3v-0.6v-8.7v-1l0,0c0-26-17-34.7-18.7-35.5C27.9,82.6,23,77.5,23,71.4C23,65.1,28.1,60,34.3,60h14.8
c4.9,0,9.8,1.1,14.3,3.2l20.1,9.4c2.7,1.3,5.7,1.9,8.7,1.9h27.2c7.3,0,13.3,5.7,13.8,12.9h35.4c4.7,0,8.5,3.8,8.5,8.5v23.2h0v8.7
c0,0,0,0,0,0v0.6c0,0,0,0,0,0V133.8z M169.2,125.3c0.2,0,0.4-0.1,0.6-0.1h4.6c0.2,0,0.4,0,0.6,0.1v-6.2h-5.8V125.3z M169.2,127.8
v0.6c0,0.3,0.3,0.6,0.6,0.6h4.6c0.3,0,0.6-0.3,0.6-0.6v-0.6c0-0.3-0.3-0.6-0.6-0.6h-4.6C169.5,127.3,169.2,127.5,169.2,127.8z
 M54.8,133.8c0,0.6,0.2,1.2,0.6,1.7l0.2,0.3v2.1c0,0.1,0.1,0.1,0.1,0.1h4c0.1,0,0.1-0.1,0.1-0.1v-2.1l0.2-0.3
c0.4-0.5,0.6-1.1,0.6-1.7V131c-0.2,0-0.4,0.1-0.6,0.1h-4.6c-0.2,0-0.4,0-0.6-0.1V133.8z M54.8,128.5c0,0.3,0.3,0.6,0.6,0.6H60
c0.3,0,0.6-0.3,0.6-0.6v-0.6c0-0.3-0.3-0.6-0.6-0.6h-4.6c-0.3,0-0.6,0.3-0.6,0.6V128.5z M54.8,125.3c0.2,0,0.4-0.1,0.6-0.1H60
c0.2,0,0.4,0,0.6,0.1v-6.2h-5.8V125.3z M52.8,103.6V96c0-3.8,2.5-7,5.9-8.1c-0.4-12.7-8.1-19.3-14.8-22.6c1.1,1.8,1.8,3.9,1.8,6.1
c0,5.2-3.5,9.6-8.3,10.9C41.4,84.9,49.1,91.3,52.8,103.6z M34.2,62c-5.1,0-9.3,4.2-9.3,9.4c0,5.2,4.2,9.4,9.3,9.4
c5.1,0,9.3-4.2,9.3-9.4c0-3.5-1.9-6.6-4.8-8.2C36.4,62.4,34.7,62.1,34.2,62z M119.3,76.6H92.1c-3.3,0-6.6-0.7-9.5-2.1L62.5,65
c-4.2-2-8.8-3-13.4-3h-7.8c7.5,3,18.7,10,19.4,25.5c0.2,0,0.4,0,0.6,0h69.9C130.6,81.4,125.5,76.6,119.3,76.6z M175,96
c0-3.6-2.9-6.5-6.5-6.5H61.2c-3.6,0-6.5,2.9-6.5,6.5v21.2H175V96z M175,133.8V131c-0.2,0-0.4,0.1-0.6,0.1h-4.6c-0.2,0-0.4,0-0.6-0.1
v2.8l0,0c0,0.6,0.2,1.2,0.6,1.7l0.2,0.3v2.1c0,0.1,0.1,0.1,0.1,0.1h4c0.1,0,0.1-0.1,0.1-0.1v-2.1l0.2-0.3
C174.8,135,175,134.4,175,133.8L175,133.8z M34.3,76.6c-2.9,0-5.2-2.3-5.2-5.2c0-2.9,2.3-5.2,5.2-5.2c2.9,0,5.2,2.3,5.2,5.2
C39.5,74.2,37.2,76.6,34.3,76.6z M34.3,68.1c-1.8,0-3.2,1.4-3.2,3.2s1.4,3.2,3.2,3.2c1.8,0,3.2-1.4,3.2-3.2S36.1,68.1,34.3,68.1z"/>
  </symbol>

  <symbol id="work-chair" viewBox="0 0 200 200">
    <path fill-rule="evenodd"
          d="M133.9,163c-2.8,0-5.1-2.3-5.1-5.1c0-1.3,0.5-2.4,1.2-3.3c-0.7-0.1-1.5-0.2-2.2-0.4l-24.3-5.9v6.2h-0.1
c0.8,0.9,1.3,2.1,1.3,3.3c0,2.8-2.3,5.1-5.1,5.1c-2.8,0-5.1-2.3-5.1-5.1c0-1.3,0.5-2.4,1.3-3.3h-0.1v-6.2l-24.3,5.9
c-0.7,0.2-1.5,0.3-2.2,0.4c0.8,0.9,1.2,2,1.2,3.3c0,2.8-2.3,5.1-5.1,5.1c-2.8,0-5.1-2.3-5.1-5.1c0-1.4,0.6-2.6,1.4-3.5v-0.6
c0-3.7,2.5-6.9,6.1-7.8l25.5-6.5V124h2.4v-5.6H75l-0.2-0.5l-6-6.5c-1.5-1.6-2.3-3.7-2.3-5.9v-15c-1.4-1.2-2.4-2.9-2.4-4.9
c0-3.3,2.6-6.1,5.9-6.3l4.7-5.7V55.1c0-10.5,8.6-19.1,19.2-19.1H105c10.6,0,19.2,8.6,19.2,19.1v18.3l4.8,5.7c3.3,0.3,5.9,3,5.9,6.3
c0,2-0.9,3.8-2.4,4.9v15c0,2.2-0.8,4.3-2.3,5.9l-6.1,6.5l-0.2,0.5h-20.5v5.6h2.4v15.6l25.5,6.5c3.6,0.9,6.1,4.1,6.1,7.8v0.6
c0.9,0.9,1.4,2.2,1.4,3.5C139,160.7,136.7,163,133.9,163z M68.5,105.4c0,1.7,0.6,3.3,1.8,4.5l3,3.2l-0.2-0.5
c-0.2-0.5-0.2-0.9-0.2-1.4l-1.3-5.2c-0.2-0.9-0.3-1.8-0.3-2.7V91.8c-0.2,0-0.5,0-0.7,0c-0.7,0-1.4-0.1-2-0.3V105.4z M74.7,76.6
l-2.3,2.8c0.9,0.3,1.7,0.7,2.3,1.3V76.6z M74.7,84.4c-0.5-1.9-2.2-3.3-4.2-3.3c-2.4,0-4.4,2-4.4,4.4c0,2.4,2,4.4,4.4,4.4
c2,0,3.7-1.4,4.2-3.3V84.4z M74.7,90.2c-0.4,0.4-0.9,0.7-1.5,1v12.3c0,0.3,0,0.6,0.1,0.9l1.4-3.6V90.2z M128.7,110
c1.2-1.2,1.8-2.9,1.8-4.5V91.5c-0.6,0.2-1.3,0.3-2,0.3c-0.3,0-0.5,0-0.7,0v11.7c0,0.9-0.1,1.8-0.3,2.7l-1.4,5.3
c0,0.4-0.1,0.9-0.2,1.3l-0.2,0.5L128.7,110z M124.2,100.8l1.5,3.6c0-0.3,0.1-0.6,0.1-0.9V91.2c-0.6-0.3-1.1-0.6-1.5-1V100.8z
 M124.2,86.5c0.5,1.9,2.2,3.4,4.3,3.4c2.4,0,4.4-2,4.4-4.4c0-2.4-2-4.4-4.4-4.4c-2.1,0-3.8,1.4-4.3,3.4V86.5z M124.2,80.7
c0.7-0.6,1.5-1.1,2.4-1.4l-2.4-2.9V80.7z M99.5,161c1.7,0,3.1-1.4,3.1-3.1c0-1.7-1.4-3.1-3.1-3.1c-1.7,0-3.1,1.4-3.1,3.1
C96.4,159.6,97.8,161,99.5,161z M101.4,153.2v-11.9h-3.9v11.9c0.6-0.2,1.3-0.4,1.9-0.4C100.2,152.8,100.8,153,101.4,153.2z
 M62,157.9c0,1.7,1.4,3.1,3.1,3.1c1.7,0,3.1-1.4,3.1-3.1c0-1.7-1.4-3.1-3.1-3.1C63.4,154.8,62,156.2,62,157.9z M68,147.9
c-2.4,0.6-4.1,2.5-4.5,4.9h2.6c1.5,0,3.1-0.2,4.6-0.5l24.8-6v-5h-1.3L68,147.9z M122.2,86.7c-0.1-0.4-0.1-0.8-0.1-1.3
c0-0.4,0-0.8,0.1-1.3V55.1c0-9.4-7.7-17.1-17.2-17.1H93.9c-9.5,0-17.2,7.7-17.2,17.1v29c0.1,0.4,0.2,0.9,0.2,1.4
c0,0.5-0.1,0.9-0.2,1.4V100h45.5V86.7z M124,105.5l-1.4-3.5H76.4l-1.4,3.5c-0.2,0.5-0.1,0.9,0.1,1.3c0.3,0.4,0.7,0.6,1.2,0.6h46.3
c0.5,0,0.9-0.2,1.2-0.6C124.1,106.4,124.1,105.9,124,105.5z M122.5,116.3l1.4-4.2c0.2-0.7,0.1-1.5-0.3-2c-0.2-0.2-0.5-0.6-1.1-0.6
H76.4c-0.5,0-0.9,0.4-1.1,0.6c-0.4,0.6-0.5,1.3-0.3,2l1.4,4.2h19.1h7.9H122.5z M97.5,118.3v5.6h3.9v-5.6H97.5z M103.9,126h-0.4h-7.9
h-0.4v13.4h0.4h7.9h0.4V126z M130.9,147.9l-26.2-6.6h-1.3v5l24.8,6c1.5,0.4,3,0.5,4.6,0.5h2.6C135.1,150.5,133.3,148.5,130.9,147.9z
 M133.9,154.8c-1.7,0-3.1,1.4-3.1,3.1c0,1.7,1.4,3.1,3.1,3.1s3.1-1.4,3.1-3.1C137,156.2,135.6,154.8,133.9,154.8z M87.4,49.1
c1.3,0,2.4,1.1,2.4,2.4c0,1.3-1.1,2.4-2.4,2.4c-1.3,0-2.4-1.1-2.4-2.4C85,50.2,86.1,49.1,87.4,49.1z M87.4,51.9
c0.2,0,0.4-0.2,0.4-0.4c0-0.2-0.2-0.4-0.4-0.4c-0.2,0-0.4,0.2-0.4,0.4C87,51.7,87.2,51.9,87.4,51.9z M87.4,59.1
c1.3,0,2.4,1.1,2.4,2.4s-1.1,2.4-2.4,2.4c-1.3,0-2.4-1.1-2.4-2.4S86.1,59.1,87.4,59.1z M87.4,61.9c0.2,0,0.4-0.2,0.4-0.4
c0-0.2-0.2-0.4-0.4-0.4c-0.2,0-0.4,0.2-0.4,0.4C87,61.7,87.2,61.9,87.4,61.9z M87.4,69.1c1.3,0,2.4,1.1,2.4,2.4
c0,1.3-1.1,2.4-2.4,2.4c-1.3,0-2.4-1.1-2.4-2.4C85,70.2,86.1,69.1,87.4,69.1z M87.4,71.9c0.2,0,0.4-0.2,0.4-0.4
c0-0.2-0.2-0.4-0.4-0.4c-0.2,0-0.4,0.2-0.4,0.4C87,71.7,87.2,71.9,87.4,71.9z M87.4,79.1c1.3,0,2.4,1.1,2.4,2.4s-1.1,2.4-2.4,2.4
c-1.3,0-2.4-1.1-2.4-2.4S86.1,79.1,87.4,79.1z M87.4,81.9c0.2,0,0.4-0.2,0.4-0.4c0-0.2-0.2-0.4-0.4-0.4c-0.2,0-0.4,0.2-0.4,0.4
C87,81.7,87.2,81.9,87.4,81.9z M87.4,89.1c1.3,0,2.4,1.1,2.4,2.4c0,1.3-1.1,2.4-2.4,2.4c-1.3,0-2.4-1.1-2.4-2.4
C85,90.1,86.1,89.1,87.4,89.1z M87.4,91.9c0.2,0,0.4-0.2,0.4-0.4c0-0.2-0.2-0.4-0.4-0.4c-0.2,0-0.4,0.2-0.4,0.4
C87,91.7,87.2,91.9,87.4,91.9z M99.5,49.1c1.3,0,2.4,1.1,2.4,2.4c0,1.3-1.1,2.4-2.4,2.4c-1.3,0-2.4-1.1-2.4-2.4
C97.1,50.2,98.2,49.1,99.5,49.1z M99.5,51.9c0.2,0,0.4-0.2,0.4-0.4c0-0.2-0.2-0.4-0.4-0.4c-0.2,0-0.4,0.2-0.4,0.4
C99.1,51.7,99.3,51.9,99.5,51.9z M99.5,59.1c1.3,0,2.4,1.1,2.4,2.4s-1.1,2.4-2.4,2.4c-1.3,0-2.4-1.1-2.4-2.4S98.2,59.1,99.5,59.1z
 M99.5,61.9c0.2,0,0.4-0.2,0.4-0.4c0-0.2-0.2-0.4-0.4-0.4c-0.2,0-0.4,0.2-0.4,0.4C99.1,61.7,99.3,61.9,99.5,61.9z M99.5,69.1
c1.3,0,2.4,1.1,2.4,2.4c0,1.3-1.1,2.4-2.4,2.4c-1.3,0-2.4-1.1-2.4-2.4C97.1,70.2,98.2,69.1,99.5,69.1z M99.5,71.9
c0.2,0,0.4-0.2,0.4-0.4c0-0.2-0.2-0.4-0.4-0.4c-0.2,0-0.4,0.2-0.4,0.4C99.1,71.7,99.3,71.9,99.5,71.9z M99.5,79.1
c1.3,0,2.4,1.1,2.4,2.4s-1.1,2.4-2.4,2.4c-1.3,0-2.4-1.1-2.4-2.4S98.2,79.1,99.5,79.1z M99.5,81.9c0.2,0,0.4-0.2,0.4-0.4
c0-0.2-0.2-0.4-0.4-0.4c-0.2,0-0.4,0.2-0.4,0.4C99.1,81.7,99.3,81.9,99.5,81.9z M99.5,89.1c1.3,0,2.4,1.1,2.4,2.4
c0,1.3-1.1,2.4-2.4,2.4c-1.3,0-2.4-1.1-2.4-2.4C97.1,90.1,98.2,89.1,99.5,89.1z M99.5,91.9c0.2,0,0.4-0.2,0.4-0.4
c0-0.2-0.2-0.4-0.4-0.4c-0.2,0-0.4,0.2-0.4,0.4C99.1,91.7,99.3,91.9,99.5,91.9z M111.5,49.1c1.3,0,2.4,1.1,2.4,2.4
c0,1.3-1.1,2.4-2.4,2.4c-1.3,0-2.4-1.1-2.4-2.4C109.1,50.2,110.2,49.1,111.5,49.1z M111.5,51.9c0.2,0,0.4-0.2,0.4-0.4
c0-0.2-0.2-0.4-0.4-0.4c-0.2,0-0.4,0.2-0.4,0.4C111.1,51.7,111.3,51.9,111.5,51.9z M111.5,59.1c1.3,0,2.4,1.1,2.4,2.4
s-1.1,2.4-2.4,2.4c-1.3,0-2.4-1.1-2.4-2.4S110.2,59.1,111.5,59.1z M111.5,61.9c0.2,0,0.4-0.2,0.4-0.4c0-0.2-0.2-0.4-0.4-0.4
c-0.2,0-0.4,0.2-0.4,0.4C111.1,61.7,111.3,61.9,111.5,61.9z M111.5,69.1c1.3,0,2.4,1.1,2.4,2.4c0,1.3-1.1,2.4-2.4,2.4
c-1.3,0-2.4-1.1-2.4-2.4C109.1,70.2,110.2,69.1,111.5,69.1z M111.5,71.9c0.2,0,0.4-0.2,0.4-0.4c0-0.2-0.2-0.4-0.4-0.4
c-0.2,0-0.4,0.2-0.4,0.4C111.1,71.7,111.3,71.9,111.5,71.9z M111.5,79.1c1.3,0,2.4,1.1,2.4,2.4s-1.1,2.4-2.4,2.4
c-1.3,0-2.4-1.1-2.4-2.4S110.2,79.1,111.5,79.1z M111.5,81.9c0.2,0,0.4-0.2,0.4-0.4c0-0.2-0.2-0.4-0.4-0.4c-0.2,0-0.4,0.2-0.4,0.4
C111.1,81.7,111.3,81.9,111.5,81.9z M111.5,89.1c1.3,0,2.4,1.1,2.4,2.4c0,1.3-1.1,2.4-2.4,2.4c-1.3,0-2.4-1.1-2.4-2.4
C109.1,90.1,110.2,89.1,111.5,89.1z M111.5,91.9c0.2,0,0.4-0.2,0.4-0.4c0-0.2-0.2-0.4-0.4-0.4c-0.2,0-0.4,0.2-0.4,0.4
C111.1,91.7,111.3,91.9,111.5,91.9z"/>
  </symbol>

  <symbol id="writing-desk" viewBox="0 0 200 200">
    <path fill-rule="evenodd"
          d="M30,64.9v7.7h6v11.8h2.4c-0.4,0.6-0.6,1.4-0.6,2.2c0,1.3,0.6,2.4,1.5,3.2c-0.9,0.8-1.5,1.9-1.5,3.2
c0,1.1,0.5,2.2,1.2,2.9c-0.4,0.3-0.8,0.6-1.2,1c-1,1.1-1.4,2.5-1.3,4l2.2,19.5c0.1,0.9,0.5,1.6,1.1,2.2c-0.9,0.8-1.5,1.9-1.5,3.2
c0,0,0.1,3.6,0.6,5v1.2c0,1.1,0.9,1.9,1.9,1.9h3.3c1.1,0,1.9-0.9,1.9-1.9v-1.2c0.5-1.4,0.6-5,0.6-5c0-1.4-0.7-2.6-1.7-3.3
c0.5-0.6,0.9-1.3,1-2.1l2.2-19.5c0.2-1.4-0.3-2.9-1.3-4c-0.3-0.3-0.6-0.6-1-0.9c0.8-0.8,1.3-1.8,1.3-3c0-1.3-0.6-2.4-1.5-3.2
c0.9-0.8,1.5-1.9,1.5-3.2c0-0.8-0.2-1.5-0.6-2.2h2.1v-3.6h102.5v3.6h2.4c-0.4,0.6-0.6,1.4-0.6,2.2c0,1.3,0.6,2.4,1.5,3.2
c-0.9,0.8-1.5,1.9-1.5,3.2c0,1.1,0.5,2.2,1.2,2.9c-0.4,0.3-0.8,0.6-1.2,1c-1,1.1-1.4,2.5-1.3,4l2.2,19.5c0.1,0.9,0.5,1.6,1.1,2.2
c-0.9,0.8-1.5,1.9-1.5,3.2c0,0,0.1,3.6,0.6,5v1.2c0,1.1,0.9,1.9,1.9,1.9h3.3c1.1,0,1.9-0.9,1.9-1.9v-1.2c0.5-1.4,0.6-5,0.6-5
c0-1.4-0.7-2.6-1.7-3.3c0.5-0.6,0.9-1.3,1-2.1l2.2-19.5c0.2-1.4-0.3-2.9-1.3-4c-0.3-0.3-0.6-0.6-1-0.9c0.8-0.8,1.3-1.8,1.3-3
c0-1.3-0.6-2.4-1.5-3.2c0.9-0.8,1.5-1.9,1.5-3.2c0-0.8-0.2-1.5-0.6-2.2h2.1V72.7h6v-7.7H30z M44.3,130l-0.2,0.3v1.7h-3.1v-1.4l0-0.3
l-0.2-0.3c0-0.1-0.1-0.3-0.1-0.5c0.6,0.3,1.2,0.4,1.8,0.4c0.7,0,1.3-0.2,1.9-0.5C44.3,129.7,44.3,129.9,44.3,130z M42.5,128
c-1.2,0-2.2-1-2.2-2.2c0-1.2,1-2.2,2.2-2.2s2.2,1,2.2,2.2C44.7,127,43.7,128,42.5,128z M46.2,100.7L44,120.2
c-0.1,0.8-0.8,1.5-1.6,1.5s-1.6-0.6-1.6-1.5l-2.2-19.5c-0.1-0.9,0.2-1.8,0.8-2.4c0.6-0.7,1.4-1,2.3-1h0.3h1.1h0.1
c0.9,0,1.7,0.4,2.3,1C46.1,98.9,46.3,99.8,46.2,100.7z M41.9,90.9h1.1c1.2,0,2.2,1,2.2,2.2c0,1.2-1,2.2-2.2,2.2h-1.1
c-1.2,0-2.2-1-2.2-2.2C39.8,91.8,40.7,90.9,41.9,90.9z M39.8,86.7c0-1.2,1-2.2,2.2-2.2h1.1c1.2,0,2.2,1,2.2,2.2c0,1.2-1,2.2-2.2,2.2
h-1.1C40.7,88.9,39.8,87.9,39.8,86.7z M46.8,80.9v1.6h-3.7h-1.1H38v-9.8h8.8V80.9z M151.3,78.9H48.8v-6.2h102.5V78.9z M159.5,130
l-0.2,0.3v1.7h-3.1v-1.4l0-0.3l-0.2-0.3c0-0.1-0.1-0.3-0.1-0.5c0.6,0.3,1.2,0.4,1.8,0.4c0.7,0,1.3-0.2,1.9-0.5
C159.6,129.7,159.5,129.9,159.5,130z M157.8,128c-1.2,0-2.2-1-2.2-2.2c0-1.2,1-2.2,2.2-2.2s2.2,1,2.2,2.2
C159.9,127,159,128,157.8,128z M161.5,100.7l-2.2,19.5c-0.1,0.8-0.8,1.5-1.6,1.5s-1.6-0.6-1.6-1.5l-2.2-19.5
c-0.1-0.9,0.2-1.8,0.8-2.4c0.6-0.7,1.4-1,2.3-1h0.3h1.1h0.1c0.9,0,1.7,0.4,2.3,1C161.3,98.9,161.6,99.8,161.5,100.7z M157.2,90.9
h1.1c1.2,0,2.2,1,2.2,2.2c0,1.2-1,2.2-2.2,2.2h-1.1c-1.2,0-2.2-1-2.2-2.2C155,91.8,156,90.9,157.2,90.9z M155,86.7
c0-1.2,1-2.2,2.2-2.2h1.1c1.2,0,2.2,1,2.2,2.2c0,1.2-1,2.2-2.2,2.2h-1.1C156,88.9,155,87.9,155,86.7z M162,82.5h-3.7h-1.1h-3.9v-1.6
v-8.2h8.8V82.5z M168,70.7h-4h-10.8h-2H48.8h-2H36h-4v-3.7h136V70.7z"/>
  </symbol>

  <symbol id="small-table" viewBox="0 0 200 200">
    <path fill-rule="evenodd"
          d="M161.8,134.2c-0.2-0.1-0.4-0.2-0.6-0.4c-1.3-0.8-2.3-1.4-2.3-3.9c0-2.6,1.8-5.1,3.6-7.4
c1.8-2.4,3.5-4.6,3.5-7.2c0-3.9-1.3-5.7-2.1-6.4v-9.3h-54.2c1.9-2.1,4-6.4,4-15c0-6.2-1.3-10.5-4-13c-1.3-1.2-2.7-1.7-3.6-1.9v-4.9
l1.4-1.4c0.6-0.6,0.8-1.5,0.5-2.3c-0.3-0.8-1.1-1.3-2-1.3h-6.5H93c-0.9,0-1.6,0.5-2,1.3c-0.3,0.8-0.1,1.7,0.5,2.3l1.4,1.4v4.9
c-0.9,0.2-2.3,0.6-3.6,1.9c-2.6,2.5-4,6.8-4,13c0,8.6,2.1,12.9,4,15H35.1v9.3c-0.7,0.7-2.1,2.6-2.1,6.4c0,2.5,1.7,4.8,3.5,7.2
c1.8,2.4,3.6,4.8,3.6,7.4c0,2.5-1,3.1-2.3,3.9c-0.2,0.1-0.4,0.2-0.6,0.4c-1,0.6-1.4,1.8-1.1,2.9c0.3,1.1,1.3,1.9,2.5,1.9H44l0.1,0
c1.6-0.2,4.7-1.9,4.7-7c0-2-1.2-4.5-2.4-7.2c-1.4-3-3-6.5-2-8c0.5-0.7,1.6-1.1,3.5-1.1c3.4,0,5.3,0.6,8,1.5
c5.7,1.8,14.2,4.6,43.6,4.6c29.4,0,38-2.8,43.6-4.6c2.7-0.9,4.7-1.5,8-1.5c1.8,0,3,0.4,3.5,1.1c1,1.5-0.6,4.9-2,8
c-1.2,2.7-2.4,5.2-2.4,7.2c0,5,3.1,6.8,4.7,7l5.5,0c1.2,0,2.2-0.8,2.5-1.9C163.2,135.9,162.8,134.8,161.8,134.2z M87.3,84.7
c0-2.5,0.2-4.6,0.6-6.2c3.8,0.7,7.7,1.1,11.6,1.1c3.9,0,7.8-0.4,11.6-1.1c0.4,1.6,0.6,3.7,0.6,6.2c0,0.3,0,0.7,0,1
c-8,1.5-16.4,1.5-24.4,0C87.3,85.3,87.3,85,87.3,84.7z M92.9,62c0-0.1,0.1-0.1,0.1-0.1h6.5h6.5c0,0,0.1,0,0.1,0.1c0,0.1,0,0.1,0,0.1
l-1.9,1.9v5.8c-3.1,0.5-6.3,0.5-9.3,0v-5.8l-1.9-1.9C92.9,62.1,92.8,62.1,92.9,62z M90.6,73.2c1.5-1.4,3-1.5,3.2-1.5
c1.9,0.4,3.8,0.6,5.8,0.6c1.9,0,3.9-0.2,5.8-0.6c0.2,0,1.7,0,3.2,1.5c0.7,0.7,1.5,1.7,2.1,3.4c-7.2,1.3-14.8,1.3-22.1,0
C89.1,74.9,89.8,73.8,90.6,73.2z M87.4,87.7c4,0.7,8.1,1.1,12.1,1.1c4.1,0,8.2-0.4,12.1-1.1c-0.7,9.7-4.4,11.7-5.1,12h-7.1h-7.1
C91.8,99.4,88,97.4,87.4,87.7z M37.1,101.7h62.4h7.4h55.1v6.7H37.1V101.7z M160.9,136.5c0,0.1-0.2,0.4-0.6,0.4h-5.3
c-0.4-0.1-2.9-0.7-2.9-5c0-1.6,1.1-4,2.2-6.4c1.7-3.7,3.5-7.5,1.9-9.9c-0.9-1.3-2.5-2-5.1-2c-3.7,0-5.9,0.7-8.7,1.6
c-5.5,1.8-13.9,4.5-43,4.5c-29.1,0-37.5-2.7-43-4.5c-2.8-0.9-5-1.6-8.7-1.6c-2.6,0-4.3,0.7-5.1,2c-1.5,2.4,0.2,6.2,1.9,9.9
c1.1,2.4,2.2,4.8,2.2,6.4c0,4.2-2.5,4.9-2.9,5h-5.3c-0.4,0-0.5-0.3-0.6-0.4c0-0.1-0.1-0.4,0.2-0.6c0.2-0.1,0.3-0.2,0.5-0.3
c1.4-0.8,3.3-2,3.3-5.6c0-3.3-2.1-6.1-4-8.6c-1.6-2.1-3.1-4.1-3.1-6c0-3.1,1-4.5,1.5-5h126.1c0.4,0.4,1.5,1.8,1.5,5
c0,1.9-1.5,3.9-3.1,6c-1.9,2.5-4,5.3-4,8.6c0,3.6,1.9,4.7,3.3,5.6c0.2,0.1,0.4,0.2,0.5,0.3C161,136.1,161,136.4,160.9,136.5z"/>
  </symbol>
</svg>
